<svg width="38" height="35" viewBox="0 0 38 35" fill="none" xmlns="http://www.w3.org/2000/svg">
<path d="M17.5 0C7.85092 0 0 7.85092 0 17.5C0 27.1491 7.85092 35 17.5 35C19.7758 35 21.9513 34.5625 23.9481 33.7678L23.3601 32.1442C23.2939 32.1703 23.2256 32.1984 23.1594 32.2245C23.2136 32.1643 23.2698 32.1061 23.324 32.0439L22.6396 30.1514C21.3773 31.8612 19.9063 32.9128 18.363 33.1978V25.361H20.9057L20.2815 23.639H18.363V11.361H25.4874C25.8848 13.0427 26.1155 14.8469 26.1657 16.7133L27.8956 17.3395C27.8856 15.2663 27.6628 13.2494 27.2474 11.361H32.0358C32.8366 13.2494 33.2801 15.3225 33.2801 17.5C33.2801 18.092 33.244 18.678 33.1798 19.254L34.8435 19.8561C34.9478 19.0854 35.002 18.2987 35.002 17.5C35 7.85092 27.1491 0 17.5 0ZM16.6391 1.80218V9.63905H9.99627C10.4017 8.37873 10.9054 7.20872 11.5054 6.16313C12.9343 3.67259 14.7305 2.15539 16.6391 1.80218ZM11.8406 2.77552C11.1823 3.49197 10.5682 4.33486 10.0103 5.30619C9.26778 6.60063 8.6617 8.06164 8.1941 9.63905H3.82712C5.62328 6.52638 8.44897 4.082 11.8386 2.77552H11.8406ZM2.96617 11.361H7.75459C7.32913 13.2976 7.10436 15.3707 7.10436 17.5C7.10436 19.6293 7.32913 21.7004 7.75459 23.639H2.96617C2.16542 21.7506 1.7219 19.6775 1.7219 17.5C1.7219 15.3225 2.16542 13.2494 2.96617 11.361ZM3.82913 25.361H8.1961C8.6617 26.9384 9.26978 28.3994 10.0123 29.6938C10.5682 30.6651 11.1843 31.508 11.8426 32.2245C8.45298 30.918 5.62729 28.4736 3.83114 25.361H3.82913ZM16.6391 33.1978C14.7305 32.8466 12.9323 31.3294 11.5054 28.8369C10.9054 27.7913 10.4017 26.6193 9.99627 25.361H16.6391V33.1978ZM16.6391 23.639H9.51462C9.06307 21.7225 8.82626 19.6454 8.82626 17.5C8.82626 15.3546 9.06307 13.2795 9.51462 11.361H16.6391V23.639ZM18.361 9.63905V1.80218C20.2695 2.15338 22.0677 3.67058 23.4946 6.16313C24.0946 7.20872 24.5983 8.38073 25.0037 9.63905H18.361ZM26.8039 9.63905C26.3383 8.06164 25.7302 6.60063 24.9877 5.30619C24.4318 4.33486 23.8157 3.49197 23.1574 2.77552C26.547 4.082 29.3727 6.52638 31.1689 9.63905H26.8019H26.8039Z" fill="#0067FF"/>
<path d="M37.4424 22.9306L21.4636 17.1468C21.1706 17.0404 20.8435 17.1127 20.6227 17.3334C20.402 17.5542 20.3297 17.8813 20.4361 18.1743L26.2239 34.1531C26.3383 34.4682 26.6373 34.6809 26.9725 34.6829H26.9785C27.3116 34.6829 27.6107 34.4762 27.7291 34.1651L29.451 29.6155L33.2199 33.3845C33.3704 33.535 33.5751 33.6193 33.7878 33.6193C34.0006 33.6193 34.2053 33.535 34.3558 33.3845L36.6758 31.0645C36.9888 30.7514 36.9888 30.2437 36.6758 29.9286L32.9068 26.1597L37.4564 24.4378C37.7695 24.3194 37.9782 24.0163 37.9742 23.6812C37.9722 23.346 37.7615 23.047 37.4444 22.9326L37.4424 22.9306ZM33.6875 24.1448L31.1749 25.096C31.0324 25.1502 30.914 25.2425 30.8237 25.3589C30.7514 25.4513 30.6993 25.5596 30.6752 25.678C30.6431 25.8265 30.6551 25.9791 30.7053 26.1175C30.7454 26.2279 30.8056 26.3283 30.8919 26.4146L34.9719 30.4946L33.7878 31.6786L29.7079 27.5986C29.6898 27.5806 29.6697 27.5685 29.6517 27.5525C29.5072 27.4321 29.3266 27.3638 29.1419 27.3638C29.0857 27.3638 29.0295 27.3698 28.9733 27.3819C28.7064 27.4401 28.4877 27.6267 28.3913 27.8816L26.9966 31.5642L22.5313 19.2339L34.8615 23.6973L33.6915 24.1408L33.6875 24.1448Z" fill="black"/>
</svg>
