<svg width="47" height="35" viewBox="0 0 47 35" fill="none" xmlns="http://www.w3.org/2000/svg">
<path d="M46.9704 6.3322V5.03385C44.186 5.03385 41.9207 2.77563 41.9207 0H39.3158C39.3158 2.77563 37.0505 5.03385 34.2661 5.03385V6.3322V7.63056C37.0505 7.63056 39.3158 9.88878 39.3158 12.6644H41.9207C41.9207 9.88878 44.186 7.63056 46.9704 7.63056V6.3322Z" fill="black"/>
<path d="M11.3849 34.9975L9.50516 33.0874L17.4047 25.3626H26.8977L32.9249 19.3544V12.8868H32.1366L26.4393 18.5686H23.102L17.7297 13.2132V9.88387L23.4294 4.20205V3.41627H16.939L10.9143 9.42207V18.8926L1.89909 27.8843L0 25.9936L8.22698 17.7901V9.26733C8.22698 8.65804 8.46467 8.08503 8.89396 7.65224L15.1539 1.41192C15.5905 0.979131 16.1653 0.742188 16.7765 0.742188H23.8199C25.0835 0.742188 26.1119 1.76733 26.1119 3.027V4.36646C26.1119 4.98058 25.8718 5.5536 25.4377 5.98396L20.4122 10.9936V12.1058L24.2128 15.8945H25.3285L30.3564 10.8824C30.7881 10.452 31.3653 10.2127 31.9765 10.2127H33.3202C34.5839 10.2127 35.6122 11.2378 35.6122 12.4975V19.5188C35.6122 20.1305 35.3745 20.7035 34.9404 21.1339L28.6828 27.3718C28.2511 27.8021 27.6739 28.0415 27.0627 28.0415H18.5058L11.3897 34.9999L11.3849 34.9975Z" fill="#0067FF"/>
</svg>
