<svg width="33" height="35" viewBox="0 0 33 35" fill="none" xmlns="http://www.w3.org/2000/svg">
<path d="M13.3479 19.8781V16.9678H18.22V28.5324H14.9758V19.8781H13.3456H13.3479Z" fill="black"/>
<path d="M24.5438 13.1322L32.6068 1.41224L30.5546 0L22.5217 11.6806C21.128 10.8759 19.565 10.3356 17.9023 10.1222L23.8899 1.40993L21.8376 0L16.3023 8.0491L10.7692 0L8.71696 1.40993L14.7068 10.1199C13.0418 10.3333 11.4812 10.8759 10.0875 11.6783L2.05228 0L0 1.41224L8.06069 13.1322C5.45882 15.4234 3.81004 18.7766 3.81004 22.5078C3.81004 29.3951 9.41496 35 16.3023 35C23.1896 35 28.7945 29.3951 28.7945 22.5078C28.7945 18.7766 27.148 15.4234 24.5438 13.1322ZM16.3023 32.5094C10.7878 32.5094 6.3006 28.0223 6.3006 22.5078C6.3006 16.9933 10.7878 12.5061 16.3023 12.5061C21.8167 12.5061 26.3039 16.9933 26.3039 22.5078C26.3039 28.0223 21.8167 32.5094 16.3023 32.5094Z" fill="#0067FF"/>
</svg>
