<svg width="75" height="35" viewBox="0 0 75 35" fill="none" xmlns="http://www.w3.org/2000/svg">
<path d="M21.9792 24.7116L21.7646 27.2085C23.3467 27.3438 24.9545 27.4605 26.5506 27.5562L26.6999 25.0546C25.1271 24.9613 23.5404 24.847 21.9792 24.714V24.7116Z" fill="black"/>
<path d="M47.7341 25.0546L47.8835 27.5562C49.4772 27.4605 51.0874 27.3438 52.6695 27.2085L52.4548 24.7116C50.896 24.8446 49.3069 24.9613 47.7341 25.0523V25.0546Z" fill="black"/>
<path d="M67.863 20.0213L67.7556 18.7729C66.1852 18.9082 64.5984 19.0225 63.035 19.1136L63.182 21.6151C64.7664 21.5217 66.3765 21.405 67.968 21.2674L67.8607 20.0189L67.863 20.0213Z" fill="black"/>
<path d="M6.54781 20.0912L6.44047 21.3397C8.03192 21.475 9.64203 21.5917 11.2265 21.6874L11.3735 19.1858C9.81238 19.0925 8.22326 18.9782 6.65281 18.8451L6.54547 20.0936L6.54781 20.0912Z" fill="black"/>
<path d="M47.7481 31.4787H26.6836C24.7421 31.4787 23.1624 33.0585 23.1624 35H25.6685C25.6685 34.4399 26.1236 33.9849 26.6836 33.9849H47.7481C48.3082 33.9849 48.7632 34.4399 48.7632 35H51.2694C51.2694 33.0585 49.6896 31.4787 47.7481 31.4787Z" fill="#0067FF"/>
<path d="M59.1099 18.8008L58.8066 16.3133C57.6352 16.4557 56.4614 16.584 55.283 16.703C55.1617 16.5397 55.038 16.3786 54.9096 16.22C54.0509 15.1582 53.3765 13.9705 52.9005 12.6917L51.9461 10.1179C51.1854 8.06904 49.2882 6.60827 47.1111 6.39826C43.8768 6.0879 40.6099 5.93622 37.3477 5.93856C34.0901 5.93389 30.8279 6.0879 27.596 6.39826C25.4188 6.60827 23.5217 8.06671 22.761 10.1179L21.8066 12.6917C21.3305 13.9705 20.6561 15.1582 19.7974 16.22C19.6621 16.388 19.5314 16.556 19.4031 16.7287C18.1406 16.6027 16.8805 16.4673 15.6251 16.3133L15.3218 18.8008C16.2015 18.9082 17.0859 19.0085 17.9703 19.1042C16.9786 21.146 16.4465 23.4025 16.4465 25.6917V34.9977H18.9527V25.6917C18.9527 23.4678 19.5524 21.2813 20.6632 19.3702C26.1656 19.8742 31.7123 20.1309 37.2147 20.1309C42.7171 20.1309 48.4388 19.8649 54.0252 19.3445C55.1453 21.2603 55.752 23.4562 55.752 25.6917V34.9977H58.2582V25.6917C58.2582 23.3908 57.7215 21.1227 56.7204 19.0738C57.5185 18.9875 58.3142 18.8988 59.1076 18.8008H59.1099ZM22.3456 16.997C23.0947 15.9353 23.7037 14.7849 24.1564 13.5598L25.1108 10.9859C25.5402 9.83084 26.6089 9.00711 27.8363 8.89044C29.1828 8.76209 30.5362 8.66175 31.892 8.58942V8.60108C33.7074 8.49841 35.5299 8.44474 37.3547 8.4424C39.1795 8.44474 41.002 8.49608 42.8174 8.60108V8.58942C44.1732 8.66175 45.5266 8.76209 46.8731 8.89044C48.1005 9.00944 49.1692 9.83084 49.5986 10.9859L50.553 13.5598C51.0034 14.7755 51.6077 15.9189 52.3498 16.9737C47.3141 17.4007 42.2504 17.6224 37.2194 17.6224C32.1883 17.6224 27.2973 17.4077 22.3479 16.9947L22.3456 16.997Z" fill="#0067FF"/>
<path d="M61.3665 25.5353C61.2171 25.5353 59.2057 25.54 59.0656 25.54V28.0462C59.215 28.0462 61.2358 28.0462 61.3968 28.0415C62.2299 28.0298 63.4876 28.0158 63.8867 28.4102C64.0057 28.5292 64.0663 28.7485 64.0663 29.0612H66.5725C66.5725 28.0532 66.2622 27.2341 65.6485 26.6274C64.505 25.498 62.6896 25.519 61.3688 25.5353H61.3665Z" fill="#0067FF"/>
<path d="M42.8478 25.2763C40.9833 25.3346 39.0885 25.3649 37.217 25.3649C35.3456 25.3649 33.4507 25.3346 31.5863 25.2763L31.5069 27.7801C33.3994 27.8408 35.3199 27.8711 37.217 27.8711C39.1142 27.8711 41.037 27.8408 42.9271 27.7801L42.8478 25.2763Z" fill="#0067FF"/>
<path d="M74.4108 12.8621L74.1074 10.3745C73.0013 10.5099 71.8112 10.6336 70.5721 10.7479C70.4555 10.5892 70.3341 10.4329 70.2105 10.2789C69.3517 9.21712 68.6773 8.02937 68.2013 6.75061L67.2469 4.17676C66.4862 2.12794 64.589 0.667171 62.4119 0.457156C57.3225 -0.0282127 52.1538 -0.128553 47.0504 0.163134V0.195804C45.7227 0.228473 44.3692 0.272809 42.9948 0.335814L42.9271 0.340481C40.6613 0.56683 38.9765 1.9996 37.9124 4.59912C38.8458 4.57812 39.7769 4.56879 40.7103 4.57345C41.5224 3.20369 42.4488 2.90967 43.1418 2.835C48.4879 2.59231 53.5236 2.61098 58.1696 2.66465V2.65298C59.5067 2.72532 60.8391 2.82566 62.1669 2.95167C63.3943 3.07068 64.463 3.89207 64.8924 5.04716L65.8468 7.62101C66.2925 8.82043 66.8852 9.94751 67.6133 10.9929C62.7852 11.3569 57.5582 11.5763 53.4232 11.651C53.7756 12.526 54.226 13.3568 54.7627 14.1291C58.9676 14.0218 64.4327 13.7675 69.3027 13.3684C70.4368 15.2936 71.0505 17.5034 71.0505 19.7506V29.0566H73.5567V19.7506C73.5567 17.4451 73.02 15.1746 72.0143 13.1234C72.8473 13.0394 73.6477 12.9531 74.4061 12.8597L74.4108 12.8621Z" fill="#0067FF"/>
<path d="M8.76462 26.6974C8.15091 27.3041 7.83822 28.1232 7.84055 29.1312H10.3467C10.3467 28.8185 10.4074 28.5992 10.5264 28.4802C10.9254 28.0858 12.1832 28.1022 13.0163 28.1115C13.1773 28.1115 15.4314 28.1162 15.5808 28.1162V25.61C15.4431 25.61 13.1959 25.61 13.0466 25.6053C11.7235 25.589 9.91037 25.568 8.76696 26.6974H8.76462Z" fill="#0067FF"/>
<path d="M20.9829 11.7233C16.8479 11.6486 11.6208 11.4269 6.79283 11.0629C7.52088 10.0198 8.11359 8.89041 8.55929 7.69099L9.51369 5.11714C9.94306 3.96206 11.0118 3.13833 12.2392 3.02165C13.567 2.89331 14.9017 2.7953 16.2365 2.72297V2.73463C20.8825 2.68096 25.9205 2.66463 31.2643 2.90498C31.9573 2.97965 32.8837 3.27367 33.6958 4.64344C34.6292 4.63877 35.5626 4.64577 36.4936 4.66911C35.4319 2.06959 33.7471 0.636815 31.479 0.410465L31.4113 0.405798C30.0368 0.342793 28.6857 0.298457 27.3533 0.265788V0.233119C22.257 -0.0585692 17.0882 0.0394379 11.9989 0.529473C9.82171 0.739489 7.92458 2.19793 7.16385 4.24908L6.20945 6.82293C5.73342 8.10402 5.05903 9.28944 4.2003 10.3512C4.07663 10.5052 3.95529 10.6615 3.83861 10.8202C2.59952 10.7059 1.40944 10.5822 0.303355 10.4469L0 12.9344C0.758388 13.0277 1.55878 13.1141 2.39184 13.1981C1.38843 15.2515 0.849395 17.522 0.849395 19.8252V29.1312H3.35558V19.8252C3.35558 17.5757 3.96929 15.3659 5.10337 13.4431C9.97339 13.8421 15.4361 14.0965 19.6434 14.2038C20.1825 13.4314 20.6305 12.6007 20.9829 11.7256V11.7233Z" fill="#0067FF"/>
</svg>
