
<svg version="1.1" id="a5b058a4-a0c5-4239-9540-fa445afd2ff7"
	 xmlns="http://www.w3.org/2000/svg" xmlns:xlink="http://www.w3.org/1999/xlink" x="0px" y="0px" viewBox="0 0 100 100"
	 style="enable-background:new 0 0 100 100;" xml:space="preserve">
<style type="text/css">
	.st0{fill:none;}
	.st1{fill:#1D1D1B;}
</style>
<title>audi</title>
<rect class="st0" width="100" height="100"/>
<path class="st1" d="M74.9,36.6c-3,0-5.9,1-8.3,2.9c-4.9-3.8-11.7-3.8-16.6,0c-4.9-3.8-11.7-3.8-16.6,0c-5.8-4.6-14.2-3.6-18.8,2.2
	S11,55.9,16.8,60.5c4.9,3.8,11.7,3.8,16.6,0c4.9,3.8,11.7,3.8,16.6,0c4.9,3.8,11.8,3.8,16.6,0c5.8,4.6,14.2,3.6,18.8-2.2
	s3.6-14.2-2.2-18.8C80.8,37.6,77.9,36.6,74.9,36.6z M31.2,58.3c-4.6,3.4-11.1,2.4-14.4-2.2S14.4,45.1,19,41.7
	c3.6-2.7,8.6-2.7,12.2,0C29.3,44,28.3,47,28.3,50C28.3,53,29.3,55.9,31.2,58.3z M33.4,56.1c-2.7-3.7-2.7-8.6,0-12.3
	c1.3,1.8,2,3.9,2,6.1C35.4,52.2,34.7,54.4,33.4,56.1z M47.8,58.3c-3.6,2.7-8.6,2.7-12.2,0c3.8-4.9,3.8-11.8,0-16.6
	c3.6-2.7,8.6-2.7,12.2,0C45.9,44,44.9,47,44.9,50C44.9,53,45.9,55.9,47.8,58.3z M50,56.1c-2.7-3.7-2.7-8.6,0-12.3
	c1.3,1.8,2,3.9,2,6.1C52.1,52.2,51.3,54.4,50,56.1L50,56.1z M64.4,58.3c-3.6,2.7-8.6,2.7-12.2,0c3.8-4.9,3.8-11.8,0-16.6
	c3.6-2.7,8.6-2.7,12.2,0C62.5,44,61.5,47,61.5,50C61.5,53,62.5,55.9,64.4,58.3z M66.6,56.1c-2.7-3.7-2.7-8.6,0-12.3
	c1.3,1.8,2,3.9,2,6.1C68.6,52.2,67.9,54.4,66.6,56.1z M74.9,60.3c-2.2,0-4.3-0.7-6.1-2c3.8-4.9,3.8-11.8,0-16.6
	c4.6-3.4,11.1-2.4,14.4,2.2c3.4,4.6,2.4,11.1-2.2,14.4C79.2,59.6,77.1,60.3,74.9,60.3L74.9,60.3z"/>
</svg>
