<svg id="eb67aa07-6d4f-45cc-837e-1d8ff3cef5fc" xmlns="http://www.w3.org/2000/svg" viewBox="0 0 100 100"><rect width="100" height="100" style="fill:none"/><g id="BMW-logo-grey-fallback-53px"><g id="BMW-logo"><g id="BMW-logo-fallback"><g id="BMW_Grey-Colour_RGB-2" data-name="BMW Grey-Colour RGB-2"><g id="BMW_Grey-Colour_RGB" data-name="BMW Grey-Colour RGB"><path id="Shape" d="M50,23.5A26.5,26.5,0,1,0,76.5,50,26.51,26.51,0,0,0,50,23.5ZM74.75,50A24.75,24.75,0,1,1,50,25.25,24.77,24.77,0,0,1,74.75,50Z" style="fill:#6f6f6f"/><path id="Shape-2" data-name="Shape" d="M50,34.3v.85h0A14.85,14.85,0,0,1,64.85,50h.85A15.73,15.73,0,0,0,50,34.3h0m0,30.55A14.85,14.85,0,0,1,35.15,50H34.3A15.73,15.73,0,0,0,50,65.7" style="fill:#6f6f6f"/><g id="Group"><path id="W" d="M62.7,38.84a14.16,14.16,0,0,1,1.15,1.4l5.35-3.4c-.25-.35-.7-.9-1-1.25l-3.4,2.25-.25.2.15-.25,1.5-2.95-1-1.05-3,1.5-.25.15.2-.25,2.25-3.35a13.67,13.67,0,0,0-1.25-1l-3.4,5.3a16.16,16.16,0,0,1,1.35,1.15l3.2-1.65.2-.15-.15.2Z" style="fill:#6f6f6f"/><path id="M" d="M50.5,32.09,52,28.84l.1-.3,0,.3.15,4.35c.5.05,1.05.1,1.55.2l-.25-6.45a16.26,16.26,0,0,0-2.2-.15L49.8,30.34l0,.25,0-.25-1.45-3.55-2.2.15-.25,6.45c.5-.1,1.05-.15,1.55-.2l.15-4.35,0-.3.1.3L49,32.09Z" style="fill:#6f6f6f"/><path id="B_22d" d="M38.7,37.24c.85-.9,1.35-1.9.5-2.9a1.62,1.62,0,0,0-1.85-.4H37.3v0a1.5,1.5,0,0,0-.55-1.6,2,2,0,0,0-1.2-.35c-.8.1-1.4.6-3,2.45-.5.55-1.25,1.45-1.65,2l4.55,4.3C36.85,39.09,37.5,38.49,38.7,37.24Zm-6-1.05a27.09,27.09,0,0,1,2.35-2.55,1,1,0,0,1,.5-.3.6.6,0,0,1,.7.45,1,1,0,0,1-.35.85c-.5.55-2.25,2.4-2.25,2.4Zm1.8,1.65s1.75-1.85,2.3-2.4a2,2,0,0,1,.55-.45.64.64,0,0,1,.6,0,.53.53,0,0,1,.25.55,1.53,1.53,0,0,1-.45.7c-.25.25-2.3,2.45-2.3,2.45Z" style="fill:#6f6f6f"/></g><path id="Path" d="M50,34.3V50H34.3A15.73,15.73,0,0,1,50,34.3Z" style="fill:#0066b1"/><path id="Path-2" data-name="Path" d="M65.7,50A15.69,15.69,0,0,1,50,65.7V50Z" style="fill:#0066b1"/></g></g></g></g></g></svg>