<?xml version="1.0" encoding="UTF-8"?><svg id="af3c98ae-b702-41da-b984-9baca932dda9" xmlns="http://www.w3.org/2000/svg" viewBox="0 0 200 200"><rect width="200" height="200" style="fill:none;"/><g><g><polygon points="57.57 160.53 65.98 160.53 65.98 172.57 69.29 172.57 69.29 160.53 77.7 160.53 77.7 157.73 57.57 157.73 57.57 160.53"/><rect x="50.47" y="157.73" width="3.31" height="14.84"/><path d="M167.26,157.8h-12.11v14.82h3.31v-12.02h8.02c3.12,0,5.08,1.15,5.08,4.64v7.38h3.31v-7.79c0-3.95-2.28-7.03-7.61-7.03"/><path d="M143.29,155.96h4.87c.55,0,1.03-.48,1.03-1.06s-.48-1.08-1.03-1.08h-4.87c-.6,0-1.08,.48-1.08,1.08s.48,1.06,1.08,1.06"/><path d="M95.76,166.76c4.58-.11,6.09-1.33,6.09-4.45,0-2.83-2.02-4.5-5.44-4.5h-14.91v14.82h3.31v-12.02h11.63c1.31,0,2,.59,2,1.77,0,1.03-.33,2.04-2.46,1.97h-8.36v.86l10.2,7.38h4.8l-8.48-5.82h1.64Z"/><path d="M120.02,157.48c-1.01-.04-2.04-.06-3.06-.06-1.74,0-2.87,.06-2.88,.06h-.06c-2.41,.08-4.46,.88-5.93,2.32-1.41,1.38-2.19,3.3-2.19,5.4v.02c0,4.5,3.27,7.6,8.14,7.72,1.01,.04,2.04,.06,3.06,.06,1.74,0,2.87-.06,2.88-.06h.05c2.41-.08,4.46-.88,5.93-2.32,1.41-1.38,2.19-3.3,2.19-5.4v-.02c0-4.41-3.27-7.51-8.14-7.72m4.62,7.69c-.01,2.86-1.87,4.71-4.85,4.84h-.13c-.18,.02-.88,.07-2.39,.07-1.01,0-1.98-.02-2.88-.06h-.05c-3.02-.08-4.89-1.93-4.89-4.84s1.86-4.74,4.85-4.86h.13s1.26-.06,2.96-.06c.96,0,1.37,.02,2.19,.06h.13c3.1,.15,4.94,1.96,4.94,4.85v.03Z"/><polygon points="132.47 172.62 150.53 172.62 150.53 169.82 135.78 169.82 135.78 166.49 148.72 166.49 148.72 163.8 135.78 163.8 135.78 160.6 150.53 160.6 150.53 157.8 132.47 157.8 132.47 172.62"/><path d="M134.84,155.96h4.85c.58,0,1.06-.48,1.06-1.06s-.48-1.08-1.06-1.08h-4.85c-.6,0-1.08,.48-1.08,1.08s.48,1.06,1.08,1.06"/><path d="M33.14,157.85h-.05c-2.36,.07-4.37,.83-5.82,2.2-1.38,1.31-2.14,3.13-2.14,5.12v.02c0,4.27,3.21,7.21,7.98,7.32,1.34,.06,5.4,.06,7.08,.06,2.17,0,4.25,0,4.86-.02v-2.83c-.92,.01-7.96,.02-8.79,.02-.98,0-1.97-.02-2.85-.06-2.93-.07-4.82-1.83-4.82-4.49s1.87-4.45,4.76-4.56h.13s1.22-.06,2.9-.06c.47,0,7.69,0,8.67,.03v-2.79c-.65-.01-1.67-.02-3.02-.02-3.72,0-8.84,.06-8.89,.06"/></g><path d="M100,27c-24.55,0-44.52,24.79-44.52,55.25s19.97,55.25,44.52,55.25,44.52-24.79,44.52-55.25-19.97-55.25-44.52-55.25ZM63.68,101.38l-.04-.13c-1.48-4.56-1.91-8.56-1.92-8.6v-.06s.04-.03,.04-.03l38.24-28.28,38.28,28.31v.06s-.45,4.04-1.92,8.6l-.04,.13-.11-.08h0s-36.21-26.85-36.21-26.85l-36.31,26.93h0Zm36.32,30.91c-12.75,0-24.69-7.9-32.08-21.17l-.09-.17,32.16-23.78,32.17,23.79-.08,.15s0,0,0,0c-7.39,13.28-19.33,21.18-32.09,21.18Zm0-80.94l-39.27,29.13v-.2c.4-12.92,4.67-25.01,12.01-34.03,7.37-9.05,17.05-14.04,27.27-14.04s19.9,4.98,27.27,14.04c7.34,9.02,11.6,21.1,12,34.03v.2s-.16-.12-.16-.12l-39.11-29.01Z"/></g></svg>