<?xml version="1.0" encoding="utf-8"?>
<!-- Generator: Adobe Illustrator 25.3.1, SVG Export Plug-In . SVG Version: 6.00 Build 0)  -->
<svg version="1.1" id="bbefd111-d6c1-46a8-b45b-bfbdbc397212"
	 xmlns="http://www.w3.org/2000/svg" xmlns:xlink="http://www.w3.org/1999/xlink" x="0px" y="0px" viewBox="0 0 200 200"
	 style="enable-background:new 0 0 200 200;" xml:space="preserve">
<style type="text/css">
	.st0{fill:none;}
	.st1{fill:#646B52;}
</style>
<g>
	<rect class="st0" width="200" height="200"/>
	<path class="st1" d="M69.3,90.2c-0.3,0-0.5,0.1-0.8,0.4l-18.7,19.2h9.8l9.6-10l9.7,10h9.9L70.1,90.6C69.8,90.3,69.5,90.2,69.3,90.2
		z M172.4,90.6c-0.3-0.3-0.5-0.4-0.8-0.4c-0.3,0-0.5,0.1-0.8,0.4l-18.7,19.2h9.8l9.6-10l9.7,10h9.9L172.4,90.6z M38.9,91.5
		c-0.8-0.8-1.4-1-2.6-1H10.8V97h23.6l3.3,3.1l-3.3,3.1H10.8v6.6h25.6c1.2,0,1.8-0.2,2.6-1l7.8-7.9c0.3-0.3,0.4-0.5,0.4-0.8
		c0-0.3-0.1-0.5-0.4-0.8L38.9,91.5z M99.6,91.5l-7.8,7.9c-0.3,0.3-0.4,0.5-0.4,0.8c0,0.3,0.1,0.5,0.4,0.8l7.8,7.9
		c0.8,0.8,1.4,1,2.6,1h25.6v-6.6h-23.6l-3.3-3.1l3.3-3.1h23.6v-6.6h-25.6C101,90.4,100.4,90.7,99.6,91.5z M138.5,109.8h7.2V90.4
		h-7.2V109.8z"/>
</g>
</svg>
