
<svg version="1.1" id="bc9f7aca-8194-4fbc-9a6d-bc1e070c66f3"
	 xmlns="http://www.w3.org/2000/svg" xmlns:xlink="http://www.w3.org/1999/xlink" x="0px" y="0px" viewBox="0 0 100 100"
	 style="enable-background:new 0 0 100 100;" xml:space="preserve">
<style type="text/css">
	.st0{fill:none;}
	.st1{fill:#07467F;}
	.st2{fill:#FFFFFF;}
</style>
<title>ford</title>
<rect class="st0" width="100" height="100"/>
<path class="st1" d="M50,33C24.8,33,4.6,40.5,4.6,50S25,67,50,67s45.4-7.6,45.4-17S75.1,33,50,33"/>
<path class="st2" d="M76.7,45.1c0.1-0.1,0-0.2-0.1-0.2h-2.3c-0.2,0-0.3,0-0.3,0.2c-0.3,0.5-3.5,5.3-4.1,6.3c-0.1,0.1-0.2,0.1-0.2,0
	c-0.1-0.7-0.6-1.3-1.3-1.5c-0.5-0.2-1.1-0.3-1.7-0.2c-1,0.2-2,0.7-2.8,1.3c-1.3,1-2.3,2.2-3.7,3.1c-0.8,0.5-1.8,0.9-2.5,0.3
	S57,52.4,58,51.4c0.1-0.1,0.2,0,0.2,0.1c-0.1,0.4,0,0.9,0.4,1.2c0.4,0.4,1,0.4,1.5,0.2c0.6-0.3,1-0.9,1.1-1.5c0.1-1-0.5-1.9-1.5-2
	c0,0-0.1,0-0.1,0c-0.8,0-1.7,0.3-2.3,0.8c-0.3,0.3-0.7,0.6-0.9,1c-0.1,0.1-0.2,0.1-0.2,0c0-1.3-0.5-2-1.6-2.1c-0.9,0-1.8,0.4-2.4,1
	c-0.8,0.7-1.5,1.4-2.1,2.2c-0.1,0.1-0.2,0.1-0.2-0.1c0-0.8-0.2-1.6-0.7-2.3c-0.1-0.2-0.4-0.3-0.7-0.2c-0.3,0.1-0.6,0.3-0.8,0.5
	c-0.1,0.1-0.2,0.3-0.1,0.5c0.4,1.3,0.3,2.7-0.2,4c-0.5,1.2-1.4,2.1-2.5,2.5c-0.7,0.3-1.5,0.1-1.9-0.5c-0.7-0.9-0.4-2.4,0.6-3.7
	c0.9-1.1,2-1.9,3.3-2.3c0.1-0.1,0.2-0.1,0.1-0.3c-0.1-0.2-0.1-0.4-0.2-0.6c-0.1-0.3-0.4-0.3-0.8-0.3c-0.9,0.1-1.7,0.4-2.5,0.8
	c-2.1,1.1-3.1,3.2-3.5,4.4c-0.2,0.4-0.4,0.8-0.6,1.2c-0.5,0.5-1,1-1.5,1.4c-0.1,0.1-0.1,0.2-0.1,0.3c0.2,0.3,0.3,0.5,0.6,0.7
	c0.1,0,0.2,0,0.3-0.1c0.5-0.4,1-0.8,1.5-1.3c0.1-0.1,0.2-0.1,0.3,0.1c0.3,1,1.1,1.9,2.1,2.2c1.9,0.6,3.8-0.3,5.3-1.9
	c0.6-0.7,1.1-1.4,1.6-2.1c0.6-0.7,1.8-2.4,3.3-3.5c0.5-0.4,1.2-0.7,1.5-0.5s0.3,0.5-0.1,1.3c-1.5,2.7-3.6,5.8-4,6.6
	c-0.1,0.1,0,0.2,0.1,0.2h2.2c0.1,0,0.2-0.1,0.2-0.1c1.1-1.8,2.2-3.4,3.3-5.2c0.1-0.1,0.1,0,0.1,0c0,0.5,0.1,0.9,0.4,1.3
	c0.4,0.6,1,1,1.7,1c0.5,0,0.9-0.1,1.4-0.3c0.4-0.2,0.8-0.4,1.1-0.6c0.2-0.1,0.2,0.1,0.2,0.1c-0.3,1.4,0.1,3.1,1.5,3.7
	c1.7,0.8,3.5-0.3,4.5-1.4c0.1-0.1,0.2-0.1,0.2,0.1c0,0.4,0.2,0.9,0.5,1.2c0.9,0.9,2.7,0.5,4.4-0.8c1.3-1,2.4-2.2,3.4-3.4
	c0.1-0.1,0.1-0.2,0-0.2c-0.2-0.2-0.4-0.4-0.6-0.5c-0.1,0-0.2,0-0.2,0c-1.1,1-2.1,2.2-3.5,3.3c-0.5,0.3-1.3,0.6-1.6,0.1
	c-0.1-0.2-0.1-0.4,0-0.8C69.6,55.8,76.3,45.7,76.7,45.1 M67.8,53.6c0,0.1,0.1,0.2,0.2,0.2c0,0,0.1,0,0,0.1c-0.3,0.5-0.6,1-0.9,1.5
	c-0.3,0.5-0.7,0.9-1.1,1.2c-0.7,0.5-1.6,1.2-2.4,0.8c-0.3-0.2-0.5-0.6-0.5-1c0.1-1.3,0.6-2.4,1.5-3.4c1.1-1.3,2.3-2,3.1-1.7
	s0.6,1.3,0.2,2.1C67.9,53.5,67.9,53.5,67.8,53.6"/>
<path class="st2" d="M28.4,59.4c-2.5,0-4.7-1.5-4.9-4.2c-0.3-2.7,1.5-5.2,4.1-5.8c0.3-0.1,0.7,0,1,0.2c0.2,0.2,0.3,0.5,0.1,0.8
	c0,0-0.1,0.1-0.1,0.1c-1,0.4-1.7,1.2-2.3,2.1c-0.4,0.8-0.4,1.8,0.1,2.6c1,1.5,3.8,1.5,6.3-0.8c0.6-0.6,1.2-1.2,1.8-1.8
	c1.1-1.2,2.1-2.5,3-3.9c0,0,0-0.1,0-0.1c0,0-0.1,0-0.1,0c-1,0-1.9,0.4-2.7,1c-0.2,0.2-0.5,0.2-0.7,0c0,0,0,0,0-0.1
	c-0.2-0.3,0-0.7,0.2-0.8c1.4-1,2.9-1.1,4.4-1.4c0.1,0,0.2-0.1,0.2-0.1c0.6-0.8,1.1-1.5,1.8-2.3c0.7-0.8,1.4-1.5,2.2-2.2
	c0.6-0.6,1.4-1,2.1-1.4c0.2-0.1,0-0.2-0.1-0.2c-3.4-0.6-6.9-1.5-10.3-0.2c-2.3,0.9-3.4,2.7-2.9,4c0.3,0.9,1.5,1,2.6,0.5
	c0.9-0.5,1.7-1.2,2.3-2.1c0.3-0.5,1-0.1,0.6,0.7c-1,2.3-2.9,4.1-5.2,4.2c-1.7,0.1-3.1-1.1-3.2-2.8c0-0.1,0-0.2,0-0.4
	c0-3.5,3.9-5.8,8-6.2c4.9-0.4,9.6,0.9,14.5,1.5c3.7,0.5,7.5,0.4,11.1-0.4c0.3-0.1,0.6,0.1,0.7,0.4c0,0.1,0,0.2,0,0.3
	c0,0.7-0.5,1.3-1.8,1.9c-1.4,0.7-2.9,1-4.4,1c-3.7,0-7.2-1.4-10.8-2.2c0,0.2,0,0.3-0.1,0.4c-2,1.5-3.8,3-5,5.1c0,0,0,0.1,0.1,0.1
	c1-0.1,2-0.1,3-0.2c0.2,0,0.2-0.1,0.2-0.2c-0.1-0.8,0.2-1.6,0.8-2.1c0.5-0.6,1.4-0.7,2-0.1c0.6,0.5,0.6,1.3,0.2,1.9
	c-0.3,0.6-0.8,1-1.4,1.2c0,0-0.1,0-0.1,0.1s0.7,0.6,0.8,0.7c0.1,0.1,0,0.3-0.1,0.4c-0.1,0.1-0.2,0.2-0.4,0.2c-0.1,0-0.3-0.1-0.4-0.1
	c-0.4-0.2-0.7-0.5-1-0.8c-0.1-0.1-0.1-0.1-0.4-0.1c-1,0.1-2.7,0.2-3.8,0.4c-0.3,0-0.3,0.1-0.4,0.2c-1.8,2.9-3.7,6.1-5.8,8.2
	C32.3,58.8,30.4,59.3,28.4,59.4 M45.4,46.3c0,0.1,0.1,0.2,0.2,0.2c0.4-0.1,0.7-0.3,1-0.7c0.2-0.3,0.3-0.7,0.1-0.9
	c-0.2-0.1-0.5-0.1-0.7,0.1C45.5,45.4,45.4,45.8,45.4,46.3"/>
<path class="st2" d="M50,65.5c-24,0-43.5-7-43.5-15.5S26,34.5,50,34.5s43.5,7,43.5,15.5S74,65.5,50,65.5 M50,35.8
	C26.8,35.8,8,42.2,8,50s18.8,14.2,42,14.2S92,57.8,92,50S73.2,35.8,50,35.8"/>
</svg>
