
<svg version="1.1" id="a33854c1-c24e-4e03-aa28-d7d7b4f1b4d5"
	 xmlns="http://www.w3.org/2000/svg" xmlns:xlink="http://www.w3.org/1999/xlink" x="0px" y="0px" viewBox="0 0 100 100"
	 style="enable-background:new 0 0 100 100;" xml:space="preserve">
<style type="text/css">
	.st0{fill:none;}
	.st1{fill:#1E355F;}
</style>
<title>hyundai</title>
<rect class="st0" width="100" height="100"/>
<polygon class="st1" points="38.7,45.2 38.7,48.9 34.5,48.9 34.5,45.2 32.2,45.2 32.2,54.8 34.5,54.8 34.5,50.9 38.7,50.9
	38.7,54.8 41,54.8 41,45.2 40.9,45.2 "/>
<polygon class="st1" points="49.4,45.2 47,49 44.6,45.2 41.9,45.2 45.8,51.5 45.8,54.8 48.1,54.8 48.1,51.5 52.1,45.2 51.9,45.2 "/>
<path class="st1" d="M59.5,45.2v7.1c0,0.3-0.2,0.5-0.4,0.5c0,0,0,0-0.1,0h-3.7v-7.6H53v9.6h6.8c0.5,0,1.1-0.2,1.4-0.5
	c0.4-0.4,0.5-0.9,0.5-1.4v-7.7H59.5z"/>
<path class="st1" d="M70.7,45.2h-6.8v9.6h2.3v-7.5h3.7c0.3,0,0.5,0.2,0.5,0.5v7.1h2.3v-7.7c0.1-1-0.6-1.9-1.6-2
	C70.9,45.1,70.8,45.1,70.7,45.2"/>
<path class="st1" d="M81.6,45.2h-6.8v9.6h6.8c1,0.1,1.9-0.7,2-1.7c0-0.1,0-0.2,0-0.3v-5.7c0-0.5-0.2-1.1-0.6-1.4
	C82.6,45.3,82.1,45.2,81.6,45.2 M81.2,47.8v4.5c0,0.3-0.2,0.5-0.5,0.5h-3.7v-5.5h3.7C81,47.3,81.2,47.5,81.2,47.8"/>
<path class="st1" d="M87.5,45.2c-0.5,0-1.1,0.2-1.4,0.5c-0.4,0.4-0.6,0.9-0.5,1.4v7.7h2.3v-3H92v3h2.3v-9.6H87.5z M92,47.3v2.5h-4.2
	v-2c0-0.3,0.2-0.5,0.5-0.5H92z"/>
<rect x="96.5" y="45.2" class="st1" width="2.3" height="9.6"/>
<path class="st1" d="M14.3,56.7c7.2,0,13.1-3,13.1-6.7s-5.9-6.7-13.1-6.7S1.2,46.3,1.2,50S7.1,56.7,14.3,56.7 M16.8,53.4
	c-0.2,0.5-0.6,1.6-1.5,2c-0.3,0.1-0.6,0.2-0.9,0.2h-0.1c-2.2,0-4.4-0.3-6.6-0.9c0,0-0.1,0-0.1,0c-0.2-0.1-0.3-0.1-0.3-0.2
	c0-0.1,0-0.2,0.1-0.2c0,0,0.1-0.1,0.1-0.1c1.3-1,2.7-1.7,4.2-2.3c1-0.4,2-0.8,3.1-1C15.6,50.7,18.1,50.4,16.8,53.4 M23.4,46.7
	c0-0.1,0.1-0.2,0.2-0.2c0.1,0,0.2,0,0.3,0.1c1.5,0.9,2.5,2.1,2.5,3.4c0,2.3-3,4.3-7.2,5.2c-0.3,0-0.5,0-0.5,0c0-0.1,0-0.2,0-0.2
	c0,0,0.1-0.1,0.1-0.2c2.3-2.7,4.1-6.8,4.6-7.9C23.3,46.8,23.4,46.7,23.4,46.7 M11.9,46.6c0.2-0.5,0.6-1.6,1.5-2
	c0.3-0.1,0.6-0.2,0.9-0.2h0.1c2.2,0,4.4,0.3,6.6,0.9H21c0.2,0.1,0.3,0.1,0.3,0.2c0,0.1,0,0.2-0.1,0.2c0,0-0.1,0.1-0.1,0.1
	c-1.3,1-2.7,1.7-4.2,2.3c-1,0.4-2,0.8-3.1,1C13.1,49.2,10.6,49.6,11.9,46.6 M9.5,44.8c0.3,0,0.5,0,0.5,0s0.1,0.1,0,0.2
	c0,0.1-0.1,0.1-0.1,0.2c-2.3,2.7-4.1,6.8-4.6,7.9c0,0.1-0.1,0.1-0.1,0.2c0,0.1-0.1,0.1-0.2,0.2c-0.1,0-0.2,0-0.3-0.1
	c-1.5-1-2.5-2.1-2.5-3.4C2.3,47.7,5.2,45.7,9.5,44.8"/>
</svg>
