
<svg version="1.1" id="f5c946e6-afc4-438b-85e8-d14d95e3b239"
	 xmlns="http://www.w3.org/2000/svg" xmlns:xlink="http://www.w3.org/1999/xlink" x="0px" y="0px" viewBox="0 0 100 100"
	 style="enable-background:new 0 0 100 100;" xml:space="preserve">
<style type="text/css">
	.st0{fill:none;}
	.st1{fill:#1D1D1B;}
</style>
<title>jaguar</title>
<rect class="st0" width="100" height="100"/>
<path class="st1" d="M20.4,30.6c0.4,0,0.9-0.1,1.3-0.3c0.2-0.1,0.4-0.2,0.4-0.2h-1c-0.5,0-0.9,0.2-1.2,0.5c0,0,0.1,0,0.3,0
	L20.4,30.6z"/>
<path class="st1" d="M54.8,45.4c1.3,0.1,2.5,0.8,3.3,1.8c1.7,2.7,3.8,8,11.2,7.4l3.3-0.3c2-0.1,3.7-0.2,5.4,0.7
	c0.9,0.4,1.7,1,2.4,1.7c1.7,1.6,3.3,3.4,5.3,2.4c0.7-0.3,1.6-1.7,1.6-1.7c-0.1-0.7-0.4-1.3-1-1.7c1.9,0.5,6.2,0.7,7.8-2.2
	c0.4-0.5,0.5-1.1,0.3-1.6c-0.5-1-1.7-0.7-1.7-0.7c-0.6,0.1-1.3,0.8-2.3,1.1c-1.3,0.4-2.6,0.4-3.9-0.1c-3.3-1.4-14-7.5-19.4-10.2
	c0,0-6.3-2.9-15.4-6.5c0,0-18-7.7-29.9-7c0,0-6.4,0.2-8.4,3c-0.2,0.2-0.3,0.5-0.2,0.8c0,0.1,0,0.1,0,0.2c-0.6,0.5-1.2,1.2-1.6,1.8
	c-0.3,0.4-0.3,0.8,0,1.2c0.1,0.1,0.2,0.2,0.3,0.3c0.1,0.3,0.3,0.6,0.5,0.9c0.4,0.5,1,0.8,1.6,0.8c0.4-0.1,0.4-0.2,0.4-0.2
	c0.3,0.2,0.7,0.4,1,0.4c-0.2-0.3-0.3-0.7-0.4-1c0-0.2,0-0.4,0-0.7c0.1-0.4,0.3-0.8,0.6-1.1c0.3-0.3,0.8-0.4,1.2-0.2
	c0.4,0.3,0.8,1.1,0.4,2.2c0,0.1-0.4,0.9-0.8,1c0,0-0.1,0-0.1,0c-0.3,0-0.5-0.1-0.8-0.3c0,0.1,0,0.3,0.1,0.4c0,0.2,0.1,0.4,0.2,0.5
	c0,0.1-0.1,0.2-0.2,0.3c-0.1,0.1-0.2,0.5,0,0.7c0.5,0.4,1.2,0.6,1.8,0.7c0.3,0,0.7-0.1,0.9-0.4c0.4-0.6,0.8-1.1,1.3-1.6
	c0.9-0.8,2-1.3,3.2-1.5c0.1,0,2.1-0.6,5.6,2.2c-1,0.1-2,0.3-3,0.5c-2.5,0.5-4.1,2.8-4.6,3.8c-1.2,2.5,1.3,3.4,1.3,3.4
	c1.6-0.2,2.9-1.3,3.5-2.7c0.2-0.6,0.9-1,1.5-0.8c0.7,0.2,7.2,2.5,8.6,2.9c0,0,4.3,1.1,5.9-0.9c2.6,0.9,5,1.3,11.4,0.4
	C53.5,45.5,54.2,45.4,54.8,45.4z M41.8,43.8c0.4-1.7-0.8-3.4-0.8-3.4c0.6,0.2,4.7,1.6,8.6,0.8c0,0-6.3,0-10.8-3.5
	c0,0,2.8,3.5,2.1,5.7c0,0-0.5,2.4-5.3,1.4c-0.5-0.1-1.1-0.3-8.3-2.3c-1.7-0.5-2.3,0.3-2.6,0.8c0,0.7-0.9,1.5-1.3,1.8
	c-2.2-0.4-1.4-2.5-1.4-2.5c-1.4,2,0.1,2.9,0.5,2.9c-0.3,0.1-0.5,0.2-0.8,0.3c0,0-1.8-1.1-0.8-2.9c1.4-2.5,2.9-3.3,5.5-3.5
	c0.9-0.1,1.9-0.2,2.9-0.1c1.9,0.3,3.1,1.3,6,1.6c-6.1-1.8-6.1-5.4-6.1-5.4l0,0c-0.3,1-0.2,2,0.1,3c-0.1,0-1.4-0.9-1.9-1.2
	c-1.2-0.8-2.5-1.3-3.9-1.6c-0.7-0.1-1.1-1-1.1-1l-0.1-0.1c-1-1.7-2-1.8-2-1.8c0.4,0.6,0.6,1.2,0.6,1.9c0.3,2.2-2.1,2.8-2.1,2.8
	c-1.5,1.9-1.4,1.9-1.8,2c-0.4,0-0.7-0.2-1.1-0.3c-0.1-0.2,0.1-0.4,0.1-0.4c0.3-0.2,0.5-0.4,0.5-0.4c1.6-1.6,1.8-2.4,1.6-3.4
	c-0.4-2.1-1.9-1.8-1.9-1.8c-0.4,0-0.8,0.3-1,0.7c-0.2,0.4-0.8,1.6-0.8,1.6c-0.3,0.7-0.7,0.9-0.8,0.9c-0.1,0-0.2,0-0.3,0
	c-0.4,0-0.7-0.2-0.9-0.5c0,0,0-0.1-0.1-0.1c-0.3-0.3-0.3-0.8-0.1-1.1c0.3-0.9,1.1-1.5,2-1.7c0.2,0,0.8-0.1,0.8-0.1
	c1.5-0.3,2.3-1.9,2.3-1.9c-0.5,0-1,0-1.5,0.1c-1,0.2-1.4,1.4-1.4,1.4c-0.9,0.2-0.8-0.5-0.7-0.8s0.6-1.1,4-1.9c0,0,1.6-0.5,5.1-0.3
	l-0.1,0.3c-0.8,1.2-2.2,1.7-3.6,1.4c0,0,0,0.9,2.2,1.2c0,0,2,0.4,5.4,3.1c0,0-1.6-3.2-4.4-4c0,0-0.3-0.1-0.2-0.3
	c1.1-0.9,2.4-1.5,3.9-1.6c0,0,7.3-0.7,11.4,4.9c-0.6-1.2-1.3-2.4-2.2-3.5c0,0,4.3,1.2,10.9,3.5c0,0,4.5,1.6,7.4,2.7
	c3.9,1.5,13.6,5.3,19.8,8.7c1.1,0.6,12.3,6.4,12.3,6.4c3.1,1.4,5.2,0.6,5.2,0.6c0.7-0.3,2-1.2,2.5-0.7c0.3,0.3,0.3,0.7,0.2,1
	c-0.2,0.5-0.9,1.3-1.9,1.7s-3.1,0.6-4.4,0.4c-1.7-0.3-3.3-1.1-4.5-2.4c-0.7-0.7-1.5-1.5-2.2-2.2c-0.6-0.7-1.5-1.2-2.5-1.3
	c-1.4-0.2-4.8-0.3-6.1-0.7c-0.9-0.3-1.9-0.9-3.3-2.9c-0.5-0.8-1.2-1.4-2-1.8c0.4,0.4,0.8,0.8,1.1,1.2c0.6,1,0.9,1.8,1.2,2.3
	c0.3,0.5,0.7,1,1.2,1.4c0.5,0.4,1.1,0.7,1.8,0.8c1.6,0.1,3.3,0.1,4.9,0.1c1.9,0,2.8,0.6,3.4,1.1s1.6,1.9,2.2,2.5
	c0.8,0.9,1.7,1.7,2.7,2.2c0.5,0.2,1.3,0.9,1.3,1.5c-0.6,0.7-1.5,0.8-3.4,0.3c0.8,0.8,1.9,1,2.9,0.7c-0.4,0.4-1,0.6-1.6,0.6
	c-1.8-0.1-3.6-2.4-4.6-3.2c-0.7-0.6-1.4-1.2-2.1-1.7c-2-1.4-6.4-1-6.4-1L68.1,53c-6.3,0.5-9-5.1-9.7-6.3c-0.3-0.4-0.5-0.7-0.7-1
	c-0.3-0.4-2.1-2.7-3.8-3.4c0,0,1.7,1.5,1.6,2.5c0,0-0.7-0.3-2.6-0.1C44.6,45.9,41.8,43.8,41.8,43.8z M14.8,32.5c0,0,0.1-0.2,0.1-0.3
	s0.2-0.5,0.7-0.6c0,0,0.3,0,0.7,0c-0.2,0.4-0.5,0.7-1,0.8C15.1,32.5,15,32.5,14.8,32.5z"/>
<path class="st1" d="M61.1,67.4c0.1,0.7-0.1,1.5-0.5,2.1C60,70.3,59,70.6,57,70.6h-0.3c-1.9,0-3-0.3-3.6-1.2
	c-0.4-0.6-0.6-1.4-0.5-2.1v-3.7h-2.8v3.8c-0.1,0.9,0.1,1.7,0.6,2.4c0.8,1.1,2.3,1.7,6.4,1.7h0c4.1,0,5.6-0.6,6.4-1.7
	c0.5-0.7,0.7-1.6,0.6-2.4v-3.8h-2.8L61.1,67.4L61.1,67.4z"/>
<path class="st1" d="M22.1,63.7l-6.6,7.6h1.6l1.4-1.6h8.4l1.4,1.6h3.2l-6.6-7.6H22.1z M19.4,68.7l3.3-3.9l3.4,3.9H19.4z"/>
<path class="st1" d="M11.4,67.2c0,1-0.2,1.7-0.7,2.2C10,70,8.9,70.3,7.3,70.3H2v1h5.7c2.7,0,4.6-0.4,5.6-1.4
	c0.6-0.7,0.9-1.6,0.9-2.5v-3.7h-2.8V67.2z"/>
<path class="st1" d="M71.8,63.7l-6.6,7.6h1.6l1.4-1.6h8.4l1.4,1.6h3.2l-6.6-7.6H71.8z M69,68.7l3.3-3.9l3.4,3.9H69z"/>
<path class="st1" d="M43.9,70.3h-4.5c-1.5,0-2.3-0.2-2.9-0.7c-0.6-0.5-1-1.3-0.9-2.1c0-0.8,0.3-1.5,0.9-2.1c0.6-0.5,1.5-0.7,3-0.7
	h7.1v-1h-8c-1.9,0-3.1,0.2-4.1,0.8c-1.1,0.6-1.8,1.8-1.7,3c-0.1,1.5,0.8,2.8,2.2,3.3c1.2,0.4,2.4,0.6,3.7,0.6h8.2v-3.5h-2.8V70.3z"
	/>
<path class="st1" d="M93.5,68.6c0.9,0,1.8-0.2,2.7-0.6c0.7-0.4,1.1-1.1,1.1-1.9c0.1-0.9-0.5-1.7-1.3-2c-0.7-0.3-1.7-0.4-3.5-0.4
	h-8.8v7.6h2.8v-2.6h3.7l4.3,2.6H98L93.5,68.6z M86.5,67.7v-3.1h5.6c1.1,0,1.5,0.1,1.9,0.3c0.3,0.3,0.5,0.7,0.4,1.1v0.2
	c0,0.4-0.1,0.9-0.5,1.1c-0.4,0.2-0.9,0.3-1.8,0.3L86.5,67.7z"/>
</svg>
