
<svg version="1.1" id="ac6e5034-c29d-40de-81f3-ae310ced342a"
	 xmlns="http://www.w3.org/2000/svg" xmlns:xlink="http://www.w3.org/1999/xlink" x="0px" y="0px" viewBox="0 0 100 100"
	 style="enable-background:new 0 0 100 100;" xml:space="preserve">
<style type="text/css">
	.st0{fill:none;}
	.st1{fill:url(#fa01d6f1-f788-4388-9890-b89afe2e5506_1_);}
	.st2{fill:url(#SVGID_1_);}
	.st3{opacity:0.4;fill:url(#SVGID_2_);enable-background:new    ;}
	.st4{fill:#FFFFFF;}
	.st5{opacity:0.4;fill:url(#SVGID_3_);enable-background:new    ;}
	.st6{fill:#565F64;}
	.st7{fill:url(#SVGID_4_);}
	.st8{fill:#A4AAAE;fill-opacity:0.6;}
	.st9{fill:#333E46;}
	.st10{fill:url(#SVGID_5_);}
	.st11{fill:url(#SVGID_6_);fill-opacity:0.8;}
	.st12{opacity:0.8;fill:url(#SVGID_7_);enable-background:new    ;}
	.st13{fill:url(#SVGID_8_);}
	.st14{fill:url(#SVGID_9_);}
	.st15{fill:url(#SVGID_10_);}
	.st16{fill:url(#SVGID_11_);}
	.st17{fill:url(#SVGID_12_);}
	.st18{fill:url(#SVGID_13_);}
	.st19{fill:url(#SVGID_14_);}
	.st20{fill:#FBFBFB;}
	.st21{fill:#333F47;}
</style>
<title>mercedes</title>
<rect class="st0" width="100" height="100"/>
<linearGradient id="fa01d6f1-f788-4388-9890-b89afe2e5506_1_" gradientUnits="userSpaceOnUse" x1="28.2558" y1="597.7845" x2="71.7494" y2="634.2092" gradientTransform="matrix(1 0 0 1 0 -566)">
	<stop  offset="0" style="stop-color:#FFFFFF"/>
	<stop  offset="0.1" style="stop-color:#E7E8E6"/>
	<stop  offset="0.1" style="stop-color:#CDD0D0"/>
	<stop  offset="0.2" style="stop-color:#B5BBBD"/>
	<stop  offset="0.2" style="stop-color:#A5ACAF"/>
	<stop  offset="0.3" style="stop-color:#9BA3A7"/>
	<stop  offset="0.3" style="stop-color:#98A0A4"/>
	<stop  offset="0.4" style="stop-color:#828A8F"/>
	<stop  offset="0.5" style="stop-color:#667075"/>
	<stop  offset="0.6" style="stop-color:#535C63"/>
	<stop  offset="0.7" style="stop-color:#475158"/>
	<stop  offset="0.8" style="stop-color:#434D54"/>
	<stop  offset="1" style="stop-color:#475157"/>
</linearGradient>
<path id="fa01d6f1-f788-4388-9890-b89afe2e5506" class="st1" d="M78.4,50c0,15.7-12.7,28.4-28.4,28.4S21.6,65.7,21.6,50
	S34.3,21.6,50,21.6h0C65.7,21.6,78.4,34.3,78.4,50C78.4,50,78.4,50,78.4,50z M50,23.4c-14.7,0-26.6,11.9-26.6,26.6
	S35.3,76.6,50,76.6S76.6,64.7,76.6,50l0,0c0-14.7-11.8-26.6-26.5-26.6C50.1,23.4,50,23.4,50,23.4z"/>
<linearGradient id="SVGID_1_" gradientUnits="userSpaceOnUse" x1="29.6065" y1="598.8508" x2="70.412" y2="633.1272" gradientTransform="matrix(1 0 0 1 0 -566)">
	<stop  offset="0" style="stop-color:#0B1F2A"/>
	<stop  offset="0.2" style="stop-color:#333F47"/>
	<stop  offset="0.5" style="stop-color:#777F84"/>
	<stop  offset="0.5" style="stop-color:#81898D"/>
	<stop  offset="0.7" style="stop-color:#B3B8B8"/>
	<stop  offset="0.8" style="stop-color:#D2D5D3"/>
	<stop  offset="0.8" style="stop-color:#DEE0DD"/>
	<stop  offset="1" style="stop-color:#FBFBFB"/>
</linearGradient>
<path class="st2" d="M50,23.4c-14.7,0-26.6,11.9-26.6,26.6S35.3,76.6,50,76.6S76.6,64.7,76.6,50l0,0c0-14.7-11.8-26.6-26.5-26.6
	C50.1,23.4,50,23.4,50,23.4z M50,74.9c-13.8,0-24.9-11.2-24.9-24.9S36.2,25.1,50,25.1S74.9,36.2,74.9,50v0
	C74.9,63.8,63.8,74.9,50,74.9C50,74.9,50,74.9,50,74.9z"/>
<linearGradient id="SVGID_2_" gradientUnits="userSpaceOnUse" x1="-70.2462" y1="91.7497" x2="-50.4012" y2="146.3047" gradientTransform="matrix(-1 0 0 -1 -10.33 169.01)">
	<stop  offset="0" style="stop-color:#E1E3E1"/>
	<stop  offset="0.1" style="stop-color:#C1C5C4"/>
	<stop  offset="0.3" style="stop-color:#9BA1A2"/>
	<stop  offset="0.5" style="stop-color:#7D8487"/>
	<stop  offset="0.7" style="stop-color:#687074;stop-opacity:0"/>
	<stop  offset="0.8" style="stop-color:#5B6469;stop-opacity:0"/>
	<stop  offset="1" style="stop-color:#576065;stop-opacity:0"/>
</linearGradient>
<path class="st3" d="M50,78.4c15.7,0,28.4-12.7,28.4-28.4S65.7,21.6,50,21.6S21.6,34.3,21.6,50c0,0,0,0,0,0
	C21.6,65.7,34.3,78.4,50,78.4C50,78.4,50,78.4,50,78.4z M50,21c16,0,29,13,29,29S66,79,50,79S21,66,21,50C21,34,34,21,50,21z"/>
<path class="st4" d="M23,50.1C23,35.2,35.1,23,50,23l0,0c14.9,0,27,12.1,27,27.1c0,0,0,0,0,0l0,0C77,65,64.9,77,50,77c0,0,0,0,0,0
	l0,0C35.1,77,23,65,23,50.1C23,50.1,23,50.1,23,50.1L23,50.1z M31.4,31.4c-5,4.9-7.8,11.7-7.8,18.7l0,0c0,7,2.8,13.6,7.7,18.6l0,0
	c5,4.9,11.7,7.7,18.7,7.7l0,0c7,0,13.7-2.7,18.6-7.7l0,0c5-4.9,7.7-11.6,7.7-18.6l0,0c0-7-2.8-13.7-7.7-18.7l0,0
	c-4.9-5-11.6-7.8-18.6-7.8l0,0C43,23.6,36.3,26.4,31.4,31.4z"/>
<linearGradient id="SVGID_3_" gradientUnits="userSpaceOnUse" x1="37.4833" y1="594.3467" x2="62.4933" y2="637.6667" gradientTransform="matrix(1 0 0 1 0 -566)">
	<stop  offset="0" style="stop-color:#E1E3E1"/>
	<stop  offset="0.1" style="stop-color:#C1C5C4"/>
	<stop  offset="0.3" style="stop-color:#9BA1A2"/>
	<stop  offset="0.5" style="stop-color:#7D8487"/>
	<stop  offset="0.7" style="stop-color:#687074;stop-opacity:0"/>
	<stop  offset="0.8" style="stop-color:#5B6469;stop-opacity:0"/>
	<stop  offset="1" style="stop-color:#576065;stop-opacity:0"/>
</linearGradient>
<path class="st5" d="M50,75c-13.8,0-25.1-11.2-25.1-25s11.2-25.1,25-25.1C63.7,24.9,75,36,75,49.9c0,6.7-2.6,13.1-7.3,17.8
	C63,72.4,56.6,75,50,75z M50,74.3c13.4,0,24.2-10.9,24.2-24.2c0-13.4-10.9-24.2-24.2-24.2c-6.4,0-12.5,2.6-17.1,7.1
	c-4.6,4.5-7.2,10.6-7.2,17C25.7,63.4,36.6,74.3,50,74.3C50,74.3,50,74.3,50,74.3L50,74.3z"/>
<path class="st4" d="M50.4,49.5"/>
<path class="st4" d="M72,61.8L54.1,47.6L50,24.3c-0.4,0.1-0.6,0.4-0.8,0.7l-2.9,22.7l-18,13.8c0,0-0.4,0.5-0.5,0.7
	c-0.1,0.2-0.1,0.5-0.1,0.7l0,0l22.3-9.2l22.3,9.2l0,0C72.3,62.5,72.3,62.1,72,61.8z"/>
<path class="st6" d="M50.2,50.7L50,54.9l20.5,8.2c0.6,0.3,1.3,0.2,1.8-0.2L50.5,50.6C50.4,50.6,50.3,50.6,50.2,50.7
	C50.2,50.7,50.2,50.7,50.2,50.7z"/>
<linearGradient id="SVGID_4_" gradientUnits="userSpaceOnUse" x1="61.3244" y1="622.7057" x2="59.7844" y2="625.2407" gradientTransform="matrix(1 0 0 1 0 -566)">
	<stop  offset="0" style="stop-color:#27343C"/>
	<stop  offset="1" style="stop-color:#00111E;stop-opacity:0"/>
</linearGradient>
<path class="st7" d="M50.2,50.7c0.7,1.3,1.6,2.4,2.5,3.5c1.3,1.4,2.8,2.6,4.4,3.5l13.3,5.3c0.6,0.3,1.3,0.2,1.8-0.2L50.5,50.6
	C50.4,50.6,50.3,50.6,50.2,50.7C50.2,50.7,50.2,50.7,50.2,50.7z"/>
<path class="st8" d="M72.2,62.1c0-0.1-0.1-0.2-0.2-0.4L53.4,48.1l-2.5,1.6c0,0,0.2,0.1,0.3,0c0.4-0.1,0.9-0.1,1.4,0
	C52.9,49.9,72.2,62.2,72.2,62.1L72.2,62.1z"/>
<path class="st9" d="M71.6,61.3L54.2,47.6l0,0l-0.8,0.5L72,61.9C71.9,61.7,71.7,61.5,71.6,61.3z"/>
<path class="st6" d="M50.5,49.4L50.5,49.4c-0.1,0.1-0.1,0.3,0.1,0.2c0.1-0.1,2.7-1.5,3.6-2L51,25.8c0-0.7-0.5-1.2-1.1-1.5l0.4,25.2
	L50.5,49.4z"/>
<path class="st8" d="M48.9,25.8V27l-2,20c0,0.3,0.1,0.6,0.4,0.7l1.2,0.9l0.8-22.1l0.1-1.7C49.1,25.1,48.9,25.4,48.9,25.8z"/>
<path class="st8" d="M47.8,49l-1.1-0.9L28.3,61.4c0,0-0.5,0.4-0.6,0.7l0,0l0.6-0.4l0,0l19.3-12.1C48,49.5,48.1,49.3,47.8,49z"/>
<path class="st6" d="M49.7,50.7c0-0.1-0.1-0.2-0.2-0.1L27.6,63c0.5,0.4,1.2,0.5,1.8,0.2L49.9,55L49.7,50.7z"/>
<linearGradient id="SVGID_5_" gradientUnits="userSpaceOnUse" x1="56.8734" y1="613.3829" x2="54.3334" y2="609.3029" gradientTransform="matrix(1 0 0 1 0 -566)">
	<stop  offset="0.1" style="stop-color:#02131F"/>
	<stop  offset="0.9" style="stop-color:#02131F;stop-opacity:0"/>
</linearGradient>
<path class="st10" d="M50.4,49.5L50.4,49.5L50.4,49.5L50.4,49.5C50.4,49.5,50.4,49.5,50.4,49.5L50.4,49.5l0.2,0.1
	c0.1-0.1,2.7-1.5,3.6-2l-0.4-2.6l0,0L51,25.8c0-0.3-0.1-0.6-0.3-0.8c0,0,1.4,18.3,1.4,20.3C52.1,46.8,51.5,48.3,50.4,49.5z"/>
<linearGradient id="SVGID_6_" gradientUnits="userSpaceOnUse" x1="49.9889" y1="619.9436" x2="46.1789" y2="621.0286" gradientTransform="matrix(1 0 0 1 0 -566)">
	<stop  offset="0.2" style="stop-color:#02131F"/>
	<stop  offset="0.9" style="stop-color:#02131F;stop-opacity:0"/>
</linearGradient>
<path class="st11" d="M49.7,50.7c0-0.1-0.1-0.2-0.2-0.1L27.6,63c0.5,0.4,1.2,0.5,1.8,0.2L49.9,55L49.7,50.7z"/>
<linearGradient id="SVGID_7_" gradientUnits="userSpaceOnUse" x1="39.8438" y1="624.9735" x2="39.3038" y2="623.6135" gradientTransform="matrix(1 0 0 1 0 -566)">
	<stop  offset="0" style="stop-color:#02131F"/>
	<stop  offset="0.1" style="stop-color:#02131F"/>
	<stop  offset="1" style="stop-color:#02131F;stop-opacity:0"/>
</linearGradient>
<path class="st12" d="M29.4,63.1l20.5-8.2l-0.2-4c-0.4,1.4-1.4,2.6-2.8,3.2l0,0c-1.3,0.7-13.4,6.7-17.8,8.8
	c-0.3,0.1-0.5,0.3-0.8,0.4C28.7,63.4,29.1,63.4,29.4,63.1z"/>
<linearGradient id="SVGID_8_" gradientUnits="userSpaceOnUse" x1="53.2649" y1="602.599" x2="50.1849" y2="602.964" gradientTransform="matrix(1 0 0 1 0 -566)">
	<stop  offset="0.3" style="stop-color:#02131F"/>
	<stop  offset="0.8" style="stop-color:#02131F;stop-opacity:0"/>
</linearGradient>
<path class="st13" d="M50.5,49.4L50.5,49.4c-0.1,0.1-0.1,0.3,0.1,0.2c0.1-0.1,2.7-1.5,3.6-2L51,25.8c0-0.7-0.5-1.2-1.1-1.5l0.4,25.2
	L50.5,49.4z"/>
<linearGradient id="SVGID_9_" gradientUnits="userSpaceOnUse" x1="53.3604" y1="602.5529" x2="51.2754" y2="602.8229" gradientTransform="matrix(1 0 0 1 0 -566)">
	<stop  offset="0.4" style="stop-color:#27343C"/>
	<stop  offset="1" style="stop-color:#3B474E;stop-opacity:0"/>
</linearGradient>
<path class="st14" d="M50.5,49.4L50.5,49.4c-0.1,0.1-0.1,0.3,0.1,0.2c0.1-0.1,2.7-1.5,3.6-2L51,25.8c0-0.7-0.5-1.2-1.1-1.5l0.4,25.2
	L50.5,49.4z"/>
<linearGradient id="SVGID_10_" gradientUnits="userSpaceOnUse" x1="20.6754" y1="616.7542" x2="45.9604" y2="631.3442" gradientTransform="matrix(1 0 0 1 0 -566)">
	<stop  offset="0" style="stop-color:#24303A;stop-opacity:0"/>
	<stop  offset="0" style="stop-color:#25323B;stop-opacity:0"/>
	<stop  offset="0.1" style="stop-color:#27343C"/>
</linearGradient>
<path class="st15" d="M25.6,61.2c-0.6-1.5-4.3-8.5-0.3-22.1h-1.5c-0.8,2.7-1.4,4.4-1.8,6.8c0,0-0.2,0.9-0.3,1.9
	c-0.1,0.7-0.1,1.4-0.1,2.2c0,5.4,1.4,8.6,1.4,8.6c1.4,4.5,4,8.5,7.4,11.7c3,2.6,7.6,4.6,11.4,5.3C41.2,75.6,30.3,70.9,25.6,61.2z"/>
<linearGradient id="SVGID_11_" gradientUnits="userSpaceOnUse" x1="49.955" y1="620.895" x2="49.955" y2="616.545" gradientTransform="matrix(1 0 0 1 0 -566)">
	<stop  offset="0.3" style="stop-color:#A5ABAF"/>
	<stop  offset="1" style="stop-color:#A5ABAF;stop-opacity:0"/>
</linearGradient>
<path class="st16" d="M50.4,50.5h-0.8c0.1,0,0.2,0,0.2,0.1l0.2,4.2H50l0.2-4.2C50.2,50.5,50.3,50.5,50.4,50.5z"/>
<linearGradient id="SVGID_12_" gradientUnits="userSpaceOnUse" x1="64.1825" y1="589.085" x2="64.1825" y2="644.365" gradientTransform="matrix(1 0 0 1 0 -566)">
	<stop  offset="0" style="stop-color:#DEE0DD"/>
	<stop  offset="0" style="stop-color:#C5C9C7"/>
	<stop  offset="0" style="stop-color:#9EA4A5"/>
	<stop  offset="0" style="stop-color:#82898C"/>
	<stop  offset="0" style="stop-color:#71797D"/>
	<stop  offset="0" style="stop-color:#6B7378"/>
	<stop  offset="0.2" style="stop-color:#333F47"/>
	<stop  offset="0.5" style="stop-color:#27343C"/>
	<stop  offset="0.8" style="stop-color:#333F47"/>
	<stop  offset="1" style="stop-color:#434D54"/>
</linearGradient>
<path class="st17" d="M59.1,23.1c9.5,3.6,18.5,13.6,18.5,26.2c0.1,15.2-12.2,27.6-27.4,27.6c-0.1,0-0.1,0-0.2,0v1.4
	c15.4,0,28.4-12.7,28.4-28.4C78.4,37.8,70.6,27,59.1,23.1z"/>
<linearGradient id="SVGID_13_" gradientUnits="userSpaceOnUse" x1="50.27" y1="587.635" x2="50.27" y2="587.635" gradientTransform="matrix(1 0 0 1 0 -566)">
	<stop  offset="0" style="stop-color:#DEE0DD"/>
	<stop  offset="0" style="stop-color:#C5C9C7"/>
	<stop  offset="0" style="stop-color:#9EA4A5"/>
	<stop  offset="0" style="stop-color:#82898C"/>
	<stop  offset="0" style="stop-color:#71797D"/>
	<stop  offset="0" style="stop-color:#6B7378"/>
	<stop  offset="0.2" style="stop-color:#333F47"/>
	<stop  offset="0.5" style="stop-color:#27343C"/>
	<stop  offset="0.8" style="stop-color:#333F47"/>
	<stop  offset="1" style="stop-color:#434D54"/>
</linearGradient>
<path class="st18" d="M50.3,21.6L50.3,21.6z"/>
<linearGradient id="SVGID_14_" gradientUnits="userSpaceOnUse" x1="72.9123" y1="594.3297" x2="60.6773" y2="612.2747" gradientTransform="matrix(1 0 0 1 0 -566)">
	<stop  offset="0.7" style="stop-color:#27343C"/>
	<stop  offset="0.7" style="stop-color:#2B373F"/>
	<stop  offset="0.7" style="stop-color:#36424A"/>
	<stop  offset="0.7" style="stop-color:#49545B"/>
	<stop  offset="0.8" style="stop-color:#646D73;stop-opacity:0"/>
	<stop  offset="0.8" style="stop-color:#868D92;stop-opacity:0"/>
	<stop  offset="0.8" style="stop-color:#B0B5B8;stop-opacity:0"/>
	<stop  offset="0.8" style="stop-color:#E1E3E4;stop-opacity:0"/>
	<stop  offset="0.8" style="stop-color:#FFFFFF;stop-opacity:0"/>
</linearGradient>
<path class="st19" d="M74.3,39.3c-6.3-14.6-20.7-15.4-21.5-15.5h-0.1c11,2,17.9,9.2,20.4,16.7v0.1c1.1,3,1.7,6.1,1.7,9.3
	c0,3.4-0.7,6.8-2,10c-0.1,0.5-0.2,1-0.3,1H74C78.4,52.7,76.5,44.5,74.3,39.3z"/>
<path class="st20" d="M23,50.1C23,35.2,35.1,23,50,23l0,0c14.9,0,27,12.1,27,27.1c0,0,0,0,0,0l0,0C77,65,64.9,77,50,77c0,0,0,0,0,0
	l0,0C35.1,77,23,65,23,50.1C23,50.1,23,50.1,23,50.1L23,50.1z M31.4,31.4c-5,4.9-7.8,11.7-7.8,18.7l0,0c0,7,2.8,13.6,7.7,18.6l0,0
	c5,4.9,11.7,7.7,18.7,7.7l0,0c7,0,13.7-2.7,18.6-7.7l0,0c5-4.9,7.7-11.6,7.7-18.6l0,0c0-7-2.8-13.7-7.7-18.7l0,0
	c-4.9-5-11.6-7.8-18.6-7.8l0,0C43,23.6,36.3,26.4,31.4,31.4z"/>
<path class="st21" d="M28.2,61.6L28.2,61.6l18.5-13.3c0.9,0.5,1.8,0.9,2.8,1.3c0.2,0.1,0.2-0.1,0.2-0.1l-2.3-1.9
	c-0.2-0.2-0.4-0.4-0.4-0.7L49.2,25c-0.1,0.1-0.1,0.3-0.2,0.4c-0.1,0.1-0.1,0.3-0.1,0.5l-3.2,21.8L28.3,61.3
	C28.3,61.4,28.2,61.5,28.2,61.6z"/>
</svg>
