
<svg version="1.1" id="a24d4fb8-7c38-426b-83f2-fddbf3f29f12"
	 xmlns="http://www.w3.org/2000/svg" xmlns:xlink="http://www.w3.org/1999/xlink" x="0px" y="0px" viewBox="0 0 100 100"
	 style="enable-background:new 0 0 100 100;" xml:space="preserve">
<style type="text/css">
	.st0{fill:none;}
</style>
<title>mini</title>
<rect class="st0" width="100" height="100"/>
<path d="M37.3,54.8h-1.9v-9.6h2.8l2.5,7.7l2.4-7.7h2.8v9.7h-2v-7.1l-2.3,7.2h-2.1l-2.3-7.2C37.3,47.6,37.3,54.8,37.3,54.8z
	 M50.1,54.8h-2v-9.6h2V54.8z M54.2,54.8h-1.9v-9.6h2.4l3.9,7v-7h1.9v9.7h-2.3l-3.8-7L54.2,54.8L54.2,54.8z M64.6,54.8h-2v-9.6h2
	V54.8z M78.8,58.4h-9.2c0.5-1.1,0.9-2.3,1.2-3.6h11.6l3.1-3H71.3c0.1-0.6,0.1-1.2,0.1-1.8s0-1.2-0.1-1.8H89l3.1-3H70.8
	c-0.3-1.2-0.7-2.4-1.2-3.6h26l3-3H68c-6.3-10-19.5-12.9-29.4-6.6c-2.7,1.7-4.9,3.9-6.6,6.6H1.4l3,3h26c-0.5,1.1-0.9,2.3-1.2,3.6H8
	l3.1,3h17.7c-0.1,0.6-0.1,1.2-0.1,1.8s0,1.2,0.1,1.8H14.6l3.1,3h11.6c0.3,1.2,0.7,2.4,1.2,3.6h-9.2l3.1,3H32
	c6.3,10,19.5,12.9,29.4,6.6c2.7-1.7,4.9-3.9,6.6-6.6h7.7L78.8,58.4z M50,68.3c-10.1,0-18.3-8.2-18.3-18.3S39.9,31.6,50,31.7
	S68.3,39.9,68.3,50c0,0,0,0,0,0C68.3,60.1,60.1,68.3,50,68.3"/>
</svg>
