<svg id="a34bc4c1-2351-4ba5-85a0-fd370dd5deef" xmlns="http://www.w3.org/2000/svg" viewBox="0 0 100 100"><rect width="100" height="100" style="fill:none"/><path d="M55.24,52.42H49.07v1.36h6.42a1.94,1.94,0,0,0,1.77-2,1.9,1.9,0,0,0-1.68-2,2.09,2.09,0,0,0-.5,0H51.19a2.09,2.09,0,0,1-.43,0,.56.56,0,0,1-.42-.57.57.57,0,0,1,.43-.57,1.84,1.84,0,0,1,.41,0H56.8V47.2H51.12a3.48,3.48,0,0,0-.57,0,1.94,1.94,0,0,0,0,3.84h4.67a.63.63,0,0,1,.58.66A.65.65,0,0,1,55.24,52.42Z" transform="translate(-0.5 -0.5)"/><path d="M44.13,52.42H38v1.36h6.42a2,2,0,0,0,1.78-2,1.91,1.91,0,0,0-1.68-2,2.09,2.09,0,0,0-.5,0H40.11a2.09,2.09,0,0,1-.43,0,.57.57,0,0,1-.42-.57.58.58,0,0,1,.43-.57,1.84,1.84,0,0,1,.41,0h5.62V47.2H40a3.43,3.43,0,0,0-.56,0,1.94,1.94,0,0,0,0,3.84h4.67a.68.68,0,0,1,0,1.34Z" transform="translate(-0.5 -0.5)"/><rect x="32.94" y="46.65" width="1.47" height="6.67"/><polygon points="29.68 53.32 29.68 46.66 28.2 46.66 28.2 51.63 23.29 46.66 21.39 46.66 21.39 53.32 22.86 53.32 22.86 48.33 27.82 53.32 29.68 53.32"/><polygon points="77.14 46.66 77.14 51.63 72.23 46.66 70.33 46.66 70.33 53.32 71.81 53.32 71.81 48.33 76.75 53.32 78.61 53.32 78.61 46.66 77.14 46.66"/><path d="M63.15,47.15,59,53.82h1.79l.74-1.19h4.85l.74,1.19H68.9l-4.16-6.67Zm-.87,4.22L64,48.69l1.66,2.68Z" transform="translate(-0.5 -0.5)"/><path d="M30.1,43.38a21.61,21.61,0,0,1,40.83,0v.06h6.5v-.78l-2.7-.31a2.69,2.69,0,0,1-2.48-1.87l-.11-.22a23.95,23.95,0,0,0-43.3,0l-.09.24a2.64,2.64,0,0,1-2.5,1.86l-2.7.32v.78h6.5Z" transform="translate(-0.5 -0.5)"/><path d="M70.93,57.61a21.61,21.61,0,0,1-40.83,0l0-.06h-6.5v.78l2.7.32a2.7,2.7,0,0,1,2.5,1.86l.11.23a23.95,23.95,0,0,0,43.29,0l.12-.23a2.63,2.63,0,0,1,2.5-1.86l2.7-.32v-.78H71Z" transform="translate(-0.5 -0.5)"/></svg>