<svg width="201" height="201" viewBox="0 0 201 201" fill="none" xmlns="http://www.w3.org/2000/svg">
<g clip-path="url(#clip0_514_20)">
<path d="M120.13 161.76H132.19C132.19 161.76 132.22 161.75 132.23 161.73V157.88C132.23 157.88 132.21 157.84 132.19 157.84H120.13C120.13 157.84 120.1 157.83 120.1 157.81V153.47C120.1 153.47 120.11 153.44 120.13 153.43H133.44C133.44 153.43 133.47 153.43 133.47 153.41V149.27C133.47 149.27 133.46 149.24 133.44 149.24H115.31C115.31 149.24 115.28 149.25 115.28 149.27V170.56C115.28 170.56 115.29 170.59 115.31 170.6H133.5C133.5 170.6 133.54 170.58 133.54 170.56V166.43C133.54 166.43 133.52 166.39 133.5 166.39H120.12C120.12 166.39 120.09 166.38 120.09 166.36V161.81C120.09 161.81 120.09 161.77 120.11 161.76H120.12H120.13Z" fill="black"/>
<path d="M87.32 149.92C86.14 149.43 84.6 149.22 82.65 149.22H70.55C70.55 149.22 70.51 149.24 70.51 149.26V170.55C70.51 170.55 70.53 170.58 70.55 170.59H75.36C75.36 170.59 75.4 170.57 75.4 170.55V164.04C75.4 164.04 75.41 164.01 75.43 164H82.64C85.44 164 87.52 163.44 88.92 162.25C90.32 161.13 91.02 159.24 91.02 156.64C91.02 154.75 90.74 153.28 90.11 152.23C89.51 151.13 88.51 150.3 87.32 149.92ZM85.37 159.09C84.74 159.65 83.77 159.86 82.37 159.86H75.43C75.43 159.86 75.4 159.84 75.4 159.82V153.31C75.4 153.31 75.41 153.28 75.43 153.27H82.37C83.42 153.27 84.18 153.34 84.74 153.62C85.24 153.83 85.65 154.2 85.93 154.67C86.17 155.25 86.29 155.86 86.28 156.49C86.28 157.75 85.93 158.59 85.37 159.08V159.09Z" fill="black"/>
<path d="M40.18 150.06C38.37 149.22 36 148.8 33.21 148.8C30.42 148.8 28.05 149.22 26.24 150.06C24.5 150.79 23.07 152.1 22.19 153.77C21.29 155.4 20.87 157.41 20.87 159.86C20.87 162.31 21.29 164.41 22.19 166.02C23.08 167.67 24.5 168.98 26.23 169.73C28.04 170.57 30.34 170.99 33.2 170.99C36.06 170.99 38.36 170.57 40.17 169.73C41.92 168.98 43.36 167.68 44.28 166.02C45.19 164.41 45.6 162.38 45.6 159.86C45.6 157.34 45.18 155.38 44.28 153.77C43.39 152.09 41.93 150.78 40.18 150.06ZM39.83 163.72C39.38 164.73 38.56 165.51 37.53 165.9C36.48 166.39 35.02 166.67 33.21 166.67C31.74 166.7 30.27 166.47 28.89 165.97C27.88 165.51 27.07 164.71 26.58 163.72C26.1 162.52 25.86 161.24 25.88 159.95C25.86 158.63 26.1 157.32 26.58 156.1C27.03 155.1 27.86 154.32 28.88 153.93C29.93 153.44 31.33 153.16 33.2 153.16C34.69 153.12 36.18 153.36 37.59 153.86C38.59 154.3 39.38 155.1 39.82 156.1C40.31 157.3 40.54 158.59 40.52 159.88C40.55 161.2 40.31 162.51 39.82 163.73L39.83 163.72Z" fill="black"/>
<path d="M167.24 166.21V149.27C167.24 149.27 167.23 149.24 167.21 149.23H162.47C162.47 149.23 162.43 149.25 162.43 149.27V170.56C162.43 170.56 162.45 170.59 162.47 170.6H180.12C180.12 170.6 180.15 170.58 180.15 170.56V166.29C180.15 166.29 180.14 166.26 180.12 166.25H167.29C167.29 166.25 167.26 166.24 167.26 166.22L167.24 166.21Z" fill="black"/>
<path d="M179.39 88.44L92.27 78.98H92.25L68.4 91.45C68.4 91.45 68.37 91.48 68.38 91.49C68.38 91.5 68.39 91.51 68.4 91.51H173.66L179.39 88.52C179.39 88.52 179.43 88.5 179.44 88.48C179.44 88.46 179.42 88.44 179.4 88.43L179.39 88.44Z" fill="black"/>
<path d="M100.51 33.4698C125.65 33.4698 146.03 53.8598 146.03 78.9998C146.03 79.7698 146.01 80.5298 145.97 81.2998L149.47 81.6798C149.52 80.7898 149.54 79.8998 149.54 78.9998C149.51 51.9098 127.52 29.9698 100.42 30.0098C79.55 30.0398 60.98 43.2598 54.14 62.9798H57.88C64.56 45.2298 81.54 33.4798 100.5 33.4798L100.51 33.4698Z" fill="black"/>
<path d="M100.51 124.52C75.37 124.53 54.97 104.16 54.96 79.0098C54.96 79.0098 54.96 78.9998 54.96 78.9898C54.96 78.2198 54.98 77.4498 55.02 76.6798L51.52 76.2998C51.47 77.1898 51.45 78.0898 51.45 78.9898C51.48 106.08 73.46 128.02 100.56 127.99C121.44 127.97 140.02 114.73 146.86 94.9998H143.13C136.46 112.75 119.48 124.5 100.52 124.52H100.51Z" fill="black"/>
<path d="M108.72 78.98H108.74L132.59 66.54C132.59 66.54 132.62 66.51 132.61 66.5C132.61 66.49 132.6 66.48 132.59 66.48H27.32L21.59 69.47C21.59 69.47 21.56 69.5 21.57 69.51C21.57 69.52 21.58 69.53 21.59 69.53L108.72 78.98Z" fill="black"/>
</g>
<defs>
<clipPath id="clip0_514_20">
<rect width="200" height="200" fill="white" transform="translate(0.5 0.5)"/>
</clipPath>
</defs>
</svg>
