<svg version="1.1" id="f2d3fd47-aff4-4385-bfd1-89dad28c11eb"
	 xmlns="http://www.w3.org/2000/svg" xmlns:xlink="http://www.w3.org/1999/xlink" x="0px" y="0px" viewBox="0 0 100 100"
	 style="enable-background:new 0 0 100 100;" xml:space="preserve">
<style type="text/css">
	.st0{fill:none;}
	.st1{fill-rule:evenodd;clip-rule:evenodd;fill:#FFFFFF;}
</style>
<g>
	<rect class="st0" width="100" height="100"/>
	<rect class="st0" width="100" height="100"/>
	<g>
		<path d="M81.9,19.4l-2.8-0.5c-19.4-3.3-39.2-3.3-58.5,0l-2.8,0.5v2.8c-0.2,6.1-0.2,11.1,0,14.9c0.6,12.3,3.4,21.9,8.6,30.2
			c5.4,8.4,13,15.2,22.1,19.5l1.5,0.7l1.5-0.7c9-4.3,16.7-11,22.1-19.4c5.2-8.3,7.9-17.8,8.7-30.2c0.2-3.9,0.2-8.9,0-15L81.9,19.4z"
			/>
		<path class="st1" d="M80.2,21c-20-3.5-40.4-3.5-60.4,0c-0.1,4.1-0.3,10.5,0,15.9c0.6,12,3.3,21.3,8.4,29.3
			c5.2,8.3,12.8,14.8,21.7,18.9c9-4.1,16.5-10.7,21.8-18.9c5.1-8,7.7-17.3,8.3-29.3C80.4,31.5,80.2,25.1,80.2,21z M79.1,36.8
			c-0.7,11.8-3.3,21-8.2,28.8c-5.1,8-12.4,14.3-21,18.3c-8.5-4-15.8-10.3-20.9-18.3c-4.9-7.8-7.6-17-8.2-28.8
			c-0.2-3.8-0.2-8.6,0-14.8c19.3-3.3,38.9-3.3,58.2,0c0.2,6,0.2,11,0,14.8H79.1z"/>
		<path class="st1" d="M30.7,26.7v-0.5c0.1-0.5-0.3-1-0.8-1.1c-0.1,0-0.1,0-0.3,0h-0.3L25,25.6V30h0.8v-1.3l3.6-0.5
			C30.3,28,30.7,27.6,30.7,26.7z M25.8,26.2l3.8-0.5c0.2,0,0.4,0.1,0.4,0.3l0,0v0.9c0,0.2-0.2,0.4-0.4,0.4l-3.8,0.4V26.2z"/>
		<path class="st1" d="M48.7,28.3h4.2v-2.4h-2.9v0.6h2.2v1.1h-3.8c-0.2,0-0.4-0.1-0.4-0.4v-2.1c0-0.2,0.2-0.4,0.4-0.4h4.3v-0.7h-4.1
			c-1,0-1.4,0.3-1.4,1.2v1.9C47.1,28,47.7,28.3,48.7,28.3z"/>
		<path class="st1" d="M63.3,28.8l2.8,0.2c1,0,1.6,0,1.6-1V26c0-1-0.6-1.2-1.6-1.3l-2.8-0.2H63c-0.8,0-1.2,0.3-1.2,1.1v1.9
			C61.8,28.5,62.3,28.6,63.3,28.8z M62.5,25.5c0-0.2,0.2-0.4,0.3-0.4h0l3.6,0.3c0.2,0,0.4,0.2,0.4,0.5V28c0,0.2-0.2,0.4-0.4,0.4l0,0
			l-3.7-0.3c-0.2,0-0.4-0.2-0.4-0.4L62.5,25.5z"/>
		<path class="st1" d="M41.1,28.5h2.7c1,0,1.5-0.3,1.5-1.2v-3.1h-0.8v3.2c0,0.2-0.2,0.4-0.3,0.4l0,0c-1.2,0-2.3,0-3.5,0.1
			c-0.2,0-0.3-0.1-0.3-0.3l0,0v-3.1h-0.8v3C39.5,28.4,40.2,28.5,41.1,28.5z"/>
		<path class="st1" d="M60,27.9c-1.5,0-3.1-0.1-4.7-0.2v-1.1l4.2,0.1V26l-4.2-0.1v-1c1.5,0,3.1,0,4.7,0.2v-0.7l-5.4-0.2v4.2l5.4,0.2
			V27.9z"/>
		<path class="st1" d="M37.8,28l-4.7,0.4v-1.1l4.2-0.3v-0.6c-1.4,0-2.8,0.1-4.2,0.3v-1l4.7-0.4v-0.6c-1.8,0.1-3.6,0.3-5.4,0.4v4.2
			l5.4-0.4V28z"/>
		<path class="st1" d="M69,25.6l2.5,0.3v3.5h0.8v-3.5l2.4,0.3v-0.7L69,24.9L69,25.6z"/>
		<path class="st1" d="M40.5,36.9c2.2-1.3,4.3-2.4,5.3-2.8C46,34,46.2,34,46.3,34c2.2-0.2,4.7-0.2,6.5-0.3h0.4h2.7
			c0.2,0,0.3,0,0.5,0l0.8,0.3c-2,0.1-6.8,0.5-8.6,0.8l0.7,0.1h0.2c1.5,0,4.3-0.2,5.5-0.2c0.3,0,0.5,0,0.8,0.2
			c0.7,0.3,2.2,0.9,2.8,1.2c0.3,0.2,0.5,0.3,0.8,0.3c0.7,0,1.7,0,2.3,0.2c0.2,0,0.4,0,0.6,0.2c1.5,0.8,3.1,1.7,4.5,2.7l0.3,0.1
			l0.6,0.1c0,0-1.9-2-2.7-2.7c-0.1-0.1-0.3-0.2-0.3-0.3c-2.9-1.7-5.5-3-7-3.6c-0.3-0.1-0.5-0.2-0.8-0.2c-4.2-0.3-8.4-0.3-12.6,0l0,0
			c-0.2,0-0.5,0.2-0.5,0.3L43.1,34c-0.1,0.2-0.2,0.3-0.3,0.5c-0.7,0.5-1.7,1.4-2.3,2c0,0,0,0-0.2,0l-0.5,0.3l-0.3,0.1l-0.7,0.5
			c0,0,0,0-0.2,0.1l-0.3,0.4l1.7-1L40.5,36.9z"/>
		<path class="st1" d="M40.6,40.8l3.2-1c0.2,0,0.3-0.2,0.5-0.3l1.7-2.9c0,0,0-0.1,0-0.2h-1.5c-0.2,0-0.3,0-0.4,0
			c-1.3,0.5-2.7,1-4,1.8c-0.1,0-0.2,0.2-0.3,0.3l-1.5,1.8c0,0-0.1,0.1-0.2,0.2l-1,0.4c-0.1,0-0.2,0.2-0.2,0.3c0,0,0,0,0,0l0,0h2.7
			C40,41,40.3,40.8,40.6,40.8z"/>
		<path class="st1" d="M38,41.5h-0.7c0,0,0,0,0,0.1v0.8l0,0l0.7-0.2c0.1,0,0.2-0.1,0.2-0.2c0.1-0.2,0.1-0.4,0-0.6
			C38.2,41.5,38,41.5,38,41.5C38,41.5,38,41.5,38,41.5z"/>
		<path class="st1" d="M54.5,40.7c0.1-0.2,0.2-0.3,0.1-0.5c0-0.5-0.2-1-0.3-1.4c0-0.1,0-0.2-0.2-0.2l-0.7-0.3c-0.1,0-0.2,0-0.3,0
			l0,0c-1.8,0.3-3.5,0.7-5,1c-0.1,0-0.2,0.1-0.3,0.2l-0.5,0.8c0,0,0,0.1,0,0.2l1.3,0.3c0.1,0,0.3,0,0.3,0c0.8-0.3,2.3-0.9,3.3-1.3
			c0.1,0,0.2,0,0.3,0l0.5,0.2c0.1,0,0.2,0.1,0.2,0.2c0.2,0.2,0.3,0.4,0.3,0.7c0.1,0.2,0.1,0.3,0,0.5c-0.3,0.5-1,1.3-1.4,1.8
			c0,0.2,0,0.3,0,0.4c0.3,0.8,0.8,2.6,1,3.5c0,0.1,0.1,0.2,0.2,0.3L54,47c0,0-0.7-3-0.8-3.8c0-0.1,0-0.3,0-0.3
			C53.6,42.1,54.2,41.2,54.5,40.7z"/>
		<path class="st1" d="M31.6,49c1.6-0.4,5.1-1,5.1-1c-0.3-0.5-1.6-1.7-2-2c-0.1-0.1-0.2-0.2-0.3-0.2c-0.5,0-2-0.2-2-0.2l0.2-0.3
			c0-0.1,0.2-0.2,0.3-0.2c1.8-0.7,4.2-1.5,5.6-2.2c0.3-0.1,0.5-0.3,0.7-0.5l0.5-0.5l0,0c0,0,0-0.1,0-0.2l-0.8,0.6
			c-0.2,0.2-0.4,0.3-0.6,0.3l-2,0.5c-0.1,0-0.3,0-0.3,0l-0.2-0.1c-0.1,0-0.2,0-0.3,0l-1.8,0.5l0.7-0.6l0.2-0.1l1.5-0.6
			c0.2,0,0.2,0,0.2-0.2s0.2-1,0.2-1.4c0-0.1,0-0.2,0.2-0.2l1.6-1.2l0,0l0.3-0.3l0,0l-2.8,1.7c-0.3,0.1-0.5,0.3-0.7,0.4l0,0l-1.2,1.5
			l-0.2,0.2c-2.5,1.8-3.9,2.8-4.4,3.3l-0.6,0.7c-0.1,0.2-0.2,0.3-0.2,0.4c0,0.2,0,0.3,0,0.5l0,0l0.3,0.3l0,0c0.4-0.3,0.9-0.7,1.4-1
			c0,0,0.1-0.1,0.1-0.2l0.3-0.5c0,0,0.1-0.2,0.1-0.2l0.3-0.2l0,0l0,0l0,0c-0.1,0.3-0.2,0.7-0.3,1l-0.1,0.2c-0.4,0.4-1,1.1-1.4,1.5
			c-0.1,0.2-0.1,0.3,0,0.5c0.4,0.5,0.9,1.1,1.3,1.6c0.1,0.1,0.2,0.2,0.3,0.3l0.3,0.2c0,0,0.3-1.5,0.5-2C31.3,49,31.4,49,31.6,49z"/>
		<path class="st1" d="M31.4,51.6l1.1,1.2l0.3-2.2C32.1,50.7,31.6,51,31.4,51.6z"/>
		<path class="st1" d="M37.9,54c0.5-0.7,1.1-1.4,1.6-2.2L35.7,55c0.7-0.2,1.5-0.5,2-0.7C37.8,54.3,37.8,54.2,37.9,54z"/>
		<path class="st1" d="M69.7,42.7c-2.3-1.7-4.8-3.2-7.5-4.3c-0.3-0.1-0.5-0.1-0.8,0l0,0c-1.5,0.5-2.8,1.2-4.2,1.8l0,0h0.5h0.2h0.3
			c0.2,0,0.3,0,0.4,0c0.5-0.2,1.4-0.3,2.2-0.5c0.3-0.1,0.7,0,1,0.2c1,0.7,2.5,2,3.5,2.8c0.2,0.2,0.3,0.3,0.6,0.3
			c1.5,0.6,2.2,0.9,2.5,1.1c0.3,0.2,0.4,0.3,0.5,0.6c0.4,1.8,0.7,3.7,0.8,5.5c0,0.3,0,0.6-0.1,0.9c-0.6,1.5-1.3,2.8-2.2,4.2
			c-0.1,0.1-0.2,0.2-0.2,0.3l-0.8,0.8c-0.1,0-0.1,0.1,0,0.2c0,0.6-0.1,1.7-0.2,1.8l0,0c1.6-2,2.9-4.3,4.1-6.7
			c0.1-0.2,0.2-0.3,0.2-0.5c0.3-2.6,0.1-5.3-0.4-7.8C69.9,43,69.8,42.8,69.7,42.7z"/>
		<path class="st1" d="M35.8,59.2c-0.2,0-0.3,0-0.3-0.2c0,0,0,0,0,0c0-0.3-0.3-1.5-0.3-1.9c0-0.2,0-0.3,0.2-0.3c0,0,0,0,0,0l3.5-1.2
			c0.3-0.1,0.5-0.3,0.5-0.5c0.3-0.4,0.7-1.2,1.2-2l0.3-0.5c0.3-0.6,0.7-1.2,0.8-1.6c0.1-0.2,0.1-0.3,0-0.5L41.5,50
			c-0.1-0.2-0.3-0.3-0.5-0.3l-3.5-0.8c-0.2,0-0.3,0-0.5,0h-0.2c1.1,0.4,2.2,0.8,3.3,1.2c0.1,0,0.2,0.2,0.3,0.3l0.1,0.4
			c0,0.2,0,0.3,0,0.5c-0.6,1.2-1.3,2.3-2.2,3.3c-0.1,0.2-0.3,0.3-0.4,0.3c-0.7,0.3-2,0.7-2.5,0.8c-0.1,0-0.2,0-0.3,0
			c-0.5-0.3-0.8-0.7-1.3-1c0,0,0,0.8,0,1.3c0,0,0,0,0,0.1c0.2,0.3,0.4,1,0.5,1.3v0.3l0.5,2.2c0,0.3,0.2,0.3,0.5,0.3
			c0.5-0.1,1-0.3,1.5-0.5H37l0.7-0.6L35.8,59.2z"/>
		<path class="st1" d="M65,51.3c-1.5-2.3-3.3-4.3-5.2-6.3c-0.1-0.1-0.2-0.2-0.3-0.2l-0.5-0.2l0,0c0,0,0.8,3.3,1.1,5.2
			c0,0.3,0.2,0.5,0.3,0.6c1,0.9,1.8,1.9,2.5,3c0.3,0.4,0.5,0.9,0.5,1.4c0.2,2.8,0.2,5.5-0.2,8.3c0,0.3-0.2,0.6-0.5,0.8
			c-1,0.8-2.3,1.9-3.7,3.1l-0.6,0.5c-1.7,1.4-3.3,2.9-4.3,3.8c-0.2,0.2-0.3,0.3-0.4,0.4c-0.2,0.3-0.5,0.9-0.5,0.9
			c-0.2-0.7-0.4-1.3-0.5-2c0-0.3,0-0.5,0-0.8c0.4-1.9,0.8-3.8,1.5-5.5c0-0.1,0-0.1,0-0.2v-0.3c-0.4,0.8-2.3,5.3-2.8,6.8
			c-0.1,0.2-0.1,0.4,0,0.7c0.3,0.8,1,2.6,1.3,3.3v-0.2v-0.2c0.3-0.5,0.8-1.4,1.2-2c0.2-0.2,0.3-0.4,0.5-0.6c0.8-0.7,2.5-2.2,4.3-3.7
			l0.5-0.4c1.5-1.3,3-2.5,4.1-3.3c0.3-0.2,0.5-0.5,0.5-0.8c1.1-3.8,1.3-7.8,0.9-11.8C65.1,51.7,65.1,51.5,65,51.3z"/>
		<path class="st1" d="M48,75.8L47,75.3c-0.2-0.1-0.3-0.2-0.4-0.3c-2.9-3.1-5.5-6.4-7.8-9.9c-0.3-0.3-0.3-0.7-0.3-1.1
			c0-0.5,0.2-1.5,0.3-2c0-0.3,0.2-0.7,0.5-0.8c0.8-0.8,2.2-2.2,2.9-2.8c0.3-0.3,0.5-0.5,0.7-0.8c0.3-0.6,1-2.2,1.7-3.5l0.3-0.5
			c0.5-1.3,1.1-2.4,1.3-3.2c0.1-0.3,0.1-0.5,0-0.8c-0.1-0.5-0.2-1-0.3-1.4v-0.3c-0.3-0.9-0.5-1.6-0.5-1.6v0.8V47
			c0.2,0.8,0.3,1.6,0.3,2.4c0,0.2,0,0.4-0.2,0.6c-1.2,2-2.4,3.8-3.8,5.5L41.2,56c-1.1,1.5-2.2,2.8-3.2,3.9c-0.3,0.3-0.4,0.5-0.5,0.9
			c-0.2,1-0.3,2-0.3,3c0,0.5,0,1,0.3,1.4c2.4,3.5,5.1,6.8,8.1,9.7l0.3,0.3c0.3,0.2,0.8,0.4,1.3,0.7l0.3,0.2l0.3,0.2h0.1l0,0L48,75.8
			L48,75.8L48,75.8z"/>
		<path class="st1" d="M50.7,75.7c-0.3-0.8-2.2-4.9-2.6-6.5c-0.2-0.4-0.2-0.9-0.1-1.3c0.1-1.1,0.3-2.4,0.5-3.8v-0.5
			c0.5-3.2,1.3-6.3,1.4-6.8c0-0.2,0-0.3,0-0.4c0-0.3-0.3-1.5-0.3-1.5c-1.5,3.7-2.8,7.4-3.8,11.2c-0.2,0.4-0.2,0.8,0,1.3
			c1.4,3.3,3,6.6,4.9,9.7l-0.2-1C50.7,75.9,50.7,75.8,50.7,75.7z"/>
	</g>
</g>
</svg>
