<svg width="200" height="200" viewBox="0 0 200 200" fill="none" xmlns="http://www.w3.org/2000/svg">
<g clip-path="url(#clip0_515_5)">
<path d="M143.5 157V148.2H148.6V143.9H143.5V139.8H138.9V157.3C139.1 161.4 142.4 164.7 146.6 164.8H148.9V160.5H146.8C145.1 160.3 143.5 158.8 143.5 157Z" fill="black"/>
<path d="M126.5 151.3V164.7H131.1V151.6C131.1 149.8 132.6 148.3 134.4 148.3H136.5V144H134.2C130 143.8 126.7 147.2 126.5 151.3Z" fill="black"/>
<path d="M112.7 143.4C106.7 143.4 102.1 148.1 102.1 154.2C102.1 160.6 106.6 165.1 112.8 165.1C115.2 165.1 117.3 164.2 118.8 162.7V164.6H123.4V154.2C123.3 148 118.9 143.4 112.7 143.4ZM112.7 160.7C109.3 160.7 106.4 157.8 106.4 154.3C106.4 150.8 109.2 147.9 112.7 147.9C116.2 147.9 119 150.8 119 154.3C119 158.1 116.5 160.7 112.7 160.7Z" fill="black"/>
<path d="M91.6 143.4C89.3 143.4 87.2 144.4 85.7 146.2C84.3 144.5 82.1 143.4 79.8 143.4C75.8 143.4 72.4 146.5 72.2 150.6V164.7H77V151.1C77 149.2 78.4 147.8 80.2 147.8C81.7 147.8 83.4 148.8 83.4 151.7V164.7H88V151.7C88 149 89.7 147.8 91.2 147.8C93.1 147.8 94.4 149.2 94.4 151.1V164.6H99V150.5C98.9 146.6 95.7 143.4 91.6 143.4Z" fill="black"/>
<path d="M61.5 152.2C57.1 151.7 56.1 150.9 56.1 149.7C56.1 147.8 59 147.5 60.3 147.5C62.5 147.5 64.6 148.4 66.3 149.7L69.2 146.8C68 145.8 65.3 143.5 59.6 143.5C54 143.5 51.1 146.8 51.1 150C51.1 153.7 54 155.9 60 156.5C62.5 156.8 64.4 157.1 64.4 158.8C64.4 162 56.3 161.7 53.1 158.1L49.9 161.3C50.2 161.6 53.9 165.1 59.6 165.1C66.4 165.1 69.4 161.8 69.4 158.7C69.5 155 67 152.8 61.5 152.2Z" fill="black"/>
<path d="M121.2 115.6C135.5 106.7 150 81.5999 150 75.9999C150 70.2999 135.5 45.2999 121.2 36.3999C120.5 35.9999 119.6 36.3999 119.6 37.0999V75.9999V114.9C119.6 115.6 120.5 116 121.2 115.6Z" fill="black"/>
<path d="M95.2 122.3C95.6 122.3 96 122.3 96.4 122.3C102.4 122.3 108 121.2 113.2 119.2C113.9 118.9 114.2 118.3 114.2 117.7V94.5999C114.2 93.9999 113.5 93.6 113.1 93.8C108.2 95.8 103.9 97.7 96.6 97.7C84.6 97.7 74.9 88 74.9 76C74.9 64 84.6 54.2999 96.5 54.2999C103.8 54.2999 108 56.2 113 58.2C113.5 58.4 114.1 58 114.1 57.4V34.2999C114.1 33.5999 113.7 32.9999 113.1 32.7999C107.9 30.7999 102.2 29.7 96.3 29.7C95.9 29.7 95.5 29.7 95.1 29.7C70.2 30.3 50 50.7999 50 76C50 76 50 75.9999 50 76.0999C50 76.0999 50 76.0999 50 76.1999C50.1 101.2 70.2 121.7 95.2 122.3Z" fill="black"/>
</g>
<defs>
<clipPath id="clip0_515_5">
<rect width="200" height="200" fill="white"/>
</clipPath>
</defs>
</svg>
