
<svg version="1.1" id="b3df48ca-02c8-4f36-a3a3-bace0a2f5fd5"
	 xmlns="http://www.w3.org/2000/svg" xmlns:xlink="http://www.w3.org/1999/xlink" x="0px" y="0px" viewBox="0 0 100 100"
	 style="enable-background:new 0 0 100 100;" xml:space="preserve">
<style type="text/css">
	.st0{fill:none;}
	.st1{fill:#E20613;}
	.st2{fill:#004F9E;}
</style>
<title>suzuki</title>
<rect class="st0" width="100" height="100"/>
<path class="st1" d="M68.5,47.8c0,0-3.5,1-10.2,5.1c-6,3.7-8.4,6.2-8.4,6.2L31.3,46.3c0,0,7.8-5.7,14.4-1.3l8.8,6l1.1-0.7L31.4,33.3
	c0,0,3.5-1,10.2-5.1c6-3.7,8.4-6.2,8.4-6.2l18.6,12.8c0,0-7.8,5.7-14.4,1.3l-8.8-6l-1.1,0.7L68.5,47.8z"/>
<rect x="87.2" y="65.3" class="st2" width="4.7" height="12.4"/>
<polyline class="st2" points="86.5,65.3 80.3,65.3 75.3,69.6 75.3,65.3 70.6,65.3 70.6,77.7 75.3,77.7 75.3,73.3 80,77.7 86.2,77.7
	79.4,71.3 "/>
<path class="st2" d="M62.3,78c5.7,0,7.1-1.4,7.1-4.6v-8.1h-4.5v7.6c0,1.3-1.1,2-2.6,2s-2.6-0.8-2.6-2v-7.5h-4.5v8.1
	C55.2,76.5,56.7,78,62.3,78"/>
<polyline class="st2" points="54.1,65.3 40,65.3 40,68.4 46.8,68.4 39.7,75 39.7,77.7 54.1,77.7 54.1,74.5 47,74.5 54.1,67.9 "/>
<path class="st2" d="M31.6,78c5.7,0,7.1-1.4,7.1-4.6v-8.1h-4.5v7.6c0,1.3-1.1,2-2.6,2s-2.6-0.7-2.6-2v-7.6h-4.5v8.1
	C24.5,76.5,26,78,31.6,78"/>
<path class="st2" d="M13.5,68.7c0-1,1.4-1,1.9-1c1,0,1.8,0.6,2.3,1.4H23c0-2.3-2.2-4.2-7.6-4.2c-5.9,0-7,2.6-7,4.1
	c0,2.8,2.1,3.6,6.8,4.1c0.4,0,2.8-0.1,2.8,1.1c0,0.9-1.4,0.9-1.9,0.9S14.8,75,14,73.7H8.2c0,2.7,1.9,4.3,8,4.3
	c5.7,0,7.2-2.3,7.2-4.1s-1.2-3.5-6-4.1C15.3,69.6,13.5,69.4,13.5,68.7"/>
</svg>
