<svg version="1.1" id="a379c92b-3ff4-45b0-84e1-55a38c399dce"
	 xmlns="http://www.w3.org/2000/svg" xmlns:xlink="http://www.w3.org/1999/xlink" x="0px" y="0px" viewBox="0 0 100 100"
	 style="enable-background:new 0 0 100 100;" xml:space="preserve">
<style type="text/css">
	.st0{fill:none;}
	.st1{fill:#1E2749;}
</style>
<title>volkswagen</title>
<rect class="st0" width="100" height="100"/>
<path class="st1" d="M50,75.1c-13.8,0-25.1-11.3-25.1-25.1c0-3.1,0.6-6,1.6-8.8l14.7,29.5c0.2,0.4,0.4,0.7,0.9,0.7
	c0.4,0,0.7-0.3,0.9-0.7l6.7-15.1c0.1-0.2,0.2-0.3,0.3-0.3c0.2,0,0.2,0.2,0.3,0.3l6.7,15.1c0.2,0.4,0.4,0.7,0.9,0.7
	c0.4,0,0.7-0.3,0.9-0.7l14.7-29.5c1.1,2.8,1.6,5.7,1.6,8.8C75.1,63.8,63.8,75.1,50,75.1z M50,44.3c-0.2,0-0.2-0.2-0.3-0.3l-7.9-17.7
	c2.5-0.9,5.3-1.4,8.2-1.4s5.6,0.5,8.2,1.4L50.3,44C50.2,44.2,50.2,44.3,50,44.3z M42,62.5c-0.2,0-0.2-0.2-0.3-0.3L28.9,36.5
	c2.3-3.5,5.3-6.4,9-8.5l9.2,20.4c0.1,0.3,0.4,0.4,0.7,0.4h4.4c0.3,0,0.6-0.1,0.7-0.4L62.1,28c3.7,2,6.7,5,9,8.5L58.3,62.2
	c-0.1,0.2-0.2,0.3-0.3,0.3c-0.2,0-0.2-0.2-0.3-0.3l-4.8-11c-0.2-0.4-0.4-0.4-0.7-0.4h-4.4c-0.3,0-0.6,0.1-0.7,0.4l-4.6,11
	C42.3,62.3,42.1,62.5,42,62.5z M50,77.7c15.3,0,27.7-12.3,27.7-27.7S65.3,22.3,50,22.3S22.3,34.7,22.3,50S34.7,77.7,50,77.7z"/>
</svg>
